<svg width="646" height="442" viewBox="0 0 646 442" fill="none" xmlns="http://www.w3.org/2000/svg">
<path d="M322.935 442C500.856 442 645.089 439.106 645.089 435.536C645.089 431.966 500.856 429.072 322.935 429.072C145.015 429.072 0.781799 431.966 0.781799 435.536C0.781799 439.106 145.015 442 322.935 442Z" fill="#EDEDED"/>
<path d="M554.592 169.055H337.901V435.536H554.592V169.055Z" fill="#E2E2E2"/>
<path d="M554.592 169.055H484.769V435.536H554.592V169.055Z" fill="#D0D0D0"/>
<path d="M484.827 219.894H268.136V435.536H484.827V219.894Z" fill="#54C0FD"/>
<path opacity="0.52" d="M313.385 219.894L316.355 226.707L297.778 245.459C296.089 246.914 294.4 268.927 294.4 268.927L304.3 279.584L318.568 276.439C320.023 271.14 298.186 271.198 300.923 267.005C305.115 260.599 321.421 243.42 330.214 234.336C333.592 230.842 334.407 225.542 332.136 221.175L331.496 219.894H313.385Z" fill="#54C0FD"/>
<path d="M484.827 219.952H415.004V435.594H484.827V219.952Z" fill="#54C0FD"/>
<path d="M415.062 274.867H198.372V435.536H415.062V274.867Z" fill="url(#paint0_linear_15_1445)"/>
<path opacity="0.52" d="M224.402 274.867H214.037L209.844 278.361C209.844 278.361 201.749 287.562 201.516 287.795C201.283 288.028 209.494 300.548 211.824 303.052C213.163 304.508 213.047 300.49 212.581 295.948C211.882 288.96 217.24 282.03 222.131 276.963L224.402 274.867Z" fill="#54C0FD"/>
<path opacity="0.37" d="M415.062 274.983H345.239V435.594H415.062V274.983Z" fill="#DB0E4D"/>
<path d="M345.355 328.559H128.665V435.594H345.355V328.559Z" fill="url(#paint1_linear_15_1445)"/>
<path opacity="0.4" d="M345.297 328.617H275.474V435.594H345.297V328.617Z" fill="#004AB4"/>
<path d="M275.59 383.3H58.8998V435.536H275.59V383.3Z" fill="#FFC500"/>
<path opacity="0.75" d="M275.532 383.358H205.709V435.594H275.532V383.358Z" fill="#FFC500"/>
<path d="M407.492 151.584V161.018C407.492 161.018 411.976 163.406 415.703 160.436V151.643C415.703 151.643 412.383 147.624 407.492 151.584Z" fill="#FF8338"/>
<path d="M444.82 158.049L440.627 151.818C440.627 151.818 439.521 148.673 443.364 146.518C443.364 146.518 446.684 144.829 448.431 147.799C450.178 150.769 452.682 156.476 452.682 156.476C452.682 156.476 452.856 158.223 450.119 159.854C447.382 161.484 444.82 158.049 444.82 158.049Z" fill="#FF8338"/>
<path d="M478.363 74.7732L482.439 78.0926C482.439 78.0926 483.371 78.7914 483.895 78.1508" fill="#1E1E1E"/>
<path d="M469.744 69.5321C469.744 69.5321 473.471 71.6868 474.927 72.6185C476.383 73.5503 481.45 77.1608 485.584 78.9661C485.584 78.9661 487.797 78.3838 488.845 78.5002C489.311 78.5585 489.369 79.199 488.904 78.6167C488.671 78.3838 488.379 78.2091 488.03 78.1508C488.03 78.1508 490.185 78.7332 490.651 77.9179C490.767 77.6267 490.709 77.2773 490.476 77.1026C490.185 76.9279 490.942 76.9861 491.058 76.462C491.175 75.9379 490.884 75.5303 489.428 75.2973C489.428 75.2973 489.952 74.6567 489.777 74.1326C489.602 73.6085 489.136 73.6085 487.331 72.9679C485.526 72.3274 485.293 72.1527 482.789 70.5221C481.624 69.2409 480.343 68.0762 478.945 67.028C476.849 65.5139 472.598 64.4075 472.598 64.4075" fill="#FF8338"/>
<path d="M488.496 78.5C488.496 78.5 488.438 78.5 488.496 78.5C483.546 77.3353 481.042 75.2389 480.925 75.1224C480.809 75.0642 480.809 74.8895 480.925 74.8312C480.984 74.7148 481.158 74.7148 481.217 74.8312C481.217 74.8312 483.721 76.9277 488.554 78.0924C488.671 78.0924 488.729 78.2089 488.729 78.3253C488.671 78.4418 488.554 78.5 488.496 78.5Z" fill="#1E1E1E"/>
<path d="M490.534 77.219C485.992 76.9278 481.275 74.0161 481.217 74.0161C481.1 73.9578 481.1 73.8414 481.158 73.7249C481.217 73.6084 481.333 73.6084 481.45 73.6667C481.508 73.6667 486.108 76.5784 490.534 76.8113C490.651 76.8113 490.767 76.9278 490.709 77.0443C490.767 77.1025 490.651 77.219 490.534 77.219Z" fill="#1E1E1E"/>
<path d="M489.369 75.472C486.283 75.472 481.682 72.5603 481.508 72.4438C481.391 72.3856 481.391 72.2691 481.45 72.1526C481.508 72.0362 481.624 72.0362 481.741 72.0944C481.799 72.1526 486.399 75.0644 489.369 75.0644C489.428 75.0644 489.428 75.0644 489.486 75.0644C489.602 75.0644 489.719 75.1808 489.719 75.2973C489.719 75.4138 489.602 75.5302 489.486 75.5302C489.486 75.472 489.428 75.472 489.369 75.472Z" fill="#1E1E1E"/>
<path d="M471.783 70.7547C472.773 68.7747 473.122 66.6201 472.947 64.4654L471.724 63.9995L468.638 69.0077L471.783 70.7547Z" fill="#1E1E1E"/>
<path d="M405.104 153.972C404.813 153.914 404.58 153.622 404.522 153.273C404.289 150.594 402.425 138.074 398.582 125.204C393.807 109.306 391.07 106.045 393.224 100.629C394.797 96.6109 403.357 88.0504 411.219 80.3052C419.08 72.56 425.253 66.0378 425.253 66.0378L441.151 52.5273L449.712 58.9914C449.712 58.9914 457.864 64.8148 448.605 82.1687C440.627 97.135 436.9 103.832 435.677 105.928C435.386 106.453 435.386 107.151 435.677 107.675C438.239 112.392 448.256 134.172 450.41 147.1C450.469 147.508 450.352 147.974 450.061 148.265C448.955 149.546 445.985 152.458 439.637 153.914C438.938 154.088 438.239 153.739 437.948 153.098C437.948 153.098 427.524 129.863 423.448 122.409C421.701 119.148 418.614 114.547 418.265 108.491C418.032 104.181 421.06 97.2515 421.06 97.2515L411.743 106.103C411.335 106.453 411.16 106.977 411.335 107.501C412.675 112.451 419.604 138.19 417.45 152.225C417.45 152.4 417.333 152.574 417.159 152.691C416.227 153.506 412.383 156.185 405.104 153.972Z" fill="#1E1E1E"/>
<path d="M356.187 93.1752C356.187 93.1752 354.265 94.6893 356.478 99.1151C359.099 104.473 361.137 106.453 362.127 106.22C363.699 105.754 364.165 97.1351 360.322 93.0587C358.808 91.4282 356.187 93.1752 356.187 93.1752Z" fill="#1E1E1E"/>
<path d="M339.415 108.899C341.279 106.919 343.026 104.88 344.657 102.784C346.753 99.9887 348.267 99.057 350.771 97.5429C352.809 96.2617 354.848 94.8641 356.711 93.4082C356.711 93.4082 359.273 91.4283 361.778 94.3982C364.282 97.3682 361.02 99.814 361.02 99.814L353.799 104.939C353.799 104.939 348.733 112.451 342.735 114.547C337.261 116.469 336.678 111.869 339.415 108.899Z" fill="#FF8338"/>
<path d="M356.187 93.1752C356.187 93.1752 374.822 78.5584 376.977 76.0543C379.015 73.6667 385.945 60.5057 387.867 53.2846C389.788 46.0635 391.71 42.8024 398.116 38.0271C404.522 33.2519 410.811 27.1373 421.468 31.039C431.077 34.5331 444.471 43.7341 448.081 46.0053C451.808 48.4511 470.152 61.9615 472.307 63.4174C472.423 63.4756 472.481 63.6503 472.481 63.825C472.249 64.9315 471.317 69.1244 466.483 73.0261C466.367 73.1425 466.134 73.1425 466.017 73.0261C463.979 71.4537 450.352 61.2627 442.083 55.9051C442.083 55.9051 442.491 58.2345 439.521 62.1362C435.386 67.4938 427.466 71.7449 418.731 73.4919C417.741 73.7249 416.809 73.0843 416.635 72.0943C416.576 71.9196 416.576 71.7449 416.576 71.6284V71.5702C416.635 71.2208 416.518 70.7549 416.46 69.9396C416.343 67.9014 414.305 65.1644 412.442 64.4074C410.112 63.4174 404.638 64.4656 401.086 60.0398C401.086 60.0398 395.146 74.1908 387.343 82.9259C380.18 90.9623 365.446 103.599 362.826 105.812C362.709 105.929 362.535 106.045 362.36 106.162L362.244 106.22C362.244 106.22 363.001 106.103 363.117 103.949C363.35 99.6393 358.633 91.3117 356.187 93.1752Z" fill="url(#paint2_linear_15_1445)"/>
<path d="M401.261 60.3308C399.572 58.2344 398.407 55.7885 397.767 53.168C397.708 53.0515 397.534 53.1097 397.534 53.2262C397.708 55.6138 398.116 63.0096 397.708 66.7949C397.767 66.7949 400.853 61.5537 401.261 60.3308Z" fill="#1E1E1E"/>
<path d="M442.199 56.5458C442.141 56.5458 442.141 56.5458 442.083 56.4875C442.025 56.4875 438.239 53.9834 431.135 49.7323C424.03 45.4812 420.361 43.2101 420.361 43.1518C420.245 43.0936 420.245 42.9771 420.303 42.8606C420.362 42.7442 420.478 42.7442 420.594 42.8024C420.653 42.8024 424.263 45.1318 431.368 49.3829C438.472 53.634 442.316 56.0799 442.374 56.1381C442.491 56.1964 442.491 56.3128 442.432 56.4293C442.316 56.5458 442.258 56.5458 442.199 56.5458Z" fill="#1E1E1E"/>
<path d="M421.002 97.4263H420.944C420.827 97.3681 420.769 97.2516 420.827 97.1351C422.342 93.0005 423.972 88.9823 425.428 85.4882C427.117 81.4118 428.573 77.9177 429.504 75.006C429.563 74.8895 429.679 74.8313 429.796 74.8895C429.912 74.9478 429.97 75.0642 429.912 75.1807C428.98 78.1507 427.524 81.6447 425.836 85.7212C424.38 89.2735 422.691 93.2334 421.235 97.3681C421.177 97.3681 421.119 97.4263 421.002 97.4263Z" fill="#7B7BF9"/>
<path d="M415.703 157.932C415.994 157.524 416.576 157.291 417.042 157.466C418.44 157.816 417.741 158.98 417.624 160.32C417.566 161.31 417.683 162.241 417.974 163.173C419.43 165.444 418.323 167.89 417.916 168.764C417.799 168.938 417.624 169.055 417.45 169.055H394.447C394.214 169.055 393.981 168.88 393.923 168.647C392.7 164.92 396.427 164.338 396.427 164.338C399.222 163.755 401.959 162.998 404.638 162.125C405.337 161.892 405.745 161.251 405.745 160.553C405.745 160.553 405.221 157.641 408.249 157.757C408.249 157.757 409.938 157.932 409.763 160.902C409.763 160.902 410.578 161.426 413.082 161.018C414.13 160.902 415.062 160.378 415.761 159.563L415.703 157.932Z" fill="#D4D4D4"/>
<path d="M434.163 169.288C433.872 169.288 433.581 169.055 433.581 168.764C433.523 167.774 433.697 165.619 435.736 165.095C438.414 164.396 440.977 164.629 442.607 162.824C443.597 161.659 444.354 160.261 444.762 158.747C444.762 158.747 442.433 156.884 444.471 155.544C446.509 154.205 448.897 155.777 449.13 157.583C449.13 157.583 452.216 156.476 452.099 155.137L450.935 152.574C451.925 152.225 453.031 152.807 453.381 153.797C454.079 155.661 454.079 156.36 455.302 157.117C456.933 158.048 457.865 159.796 457.69 161.659C457.632 162.067 457.457 162.416 457.166 162.649L451.808 167.133C450.294 168.414 448.372 169.113 446.393 169.171L434.163 169.288Z" fill="#D4D4D4"/>
<path d="M392.525 32.728C392.525 32.728 395.67 36.3967 396.136 39.4249C396.602 42.4531 400.329 43.6178 403.648 40.5314C406.968 37.4449 405.453 32.7862 405.453 32.7862C405.453 32.7862 401.552 27.7198 400.504 25.9727C399.455 24.2257 396.718 22.8281 394.156 25.5651C391.594 28.3021 392.525 32.728 392.525 32.728Z" fill="#FF8438"/>
<path d="M395.379 29.7578C395.379 29.7578 396.194 32.4366 394.913 36.3383C394.214 35.0572 393.399 33.8925 392.409 32.8442L395.379 29.7578Z" fill="#1E1E1E"/>
<path d="M381.403 18.4023C380.762 20.4988 380.587 22.6535 380.937 24.8081C381.286 27.021 381.81 30.3404 382.334 31.738C383.615 35.3486 386.702 38.0856 391.07 35.8727C393.69 34.5333 395.961 30.6316 397.359 27.7199C398.873 24.6334 399.281 21.0811 398.407 17.7035C397.708 15.083 396.194 12.5206 392.991 11.9383C387.168 10.9483 383.033 13.2777 381.403 18.4023Z" fill="#FF8438"/>
<path d="M380.762 23.3522C380.762 23.3522 384.373 24.3422 387.284 18.7517C388.333 19.9163 389.963 20.2657 391.361 19.6834C391.361 19.6834 392.118 22.9445 395.321 21.2557C395.321 21.2557 395.146 26.9045 401.435 27.5451C401.435 27.5451 403.765 20.324 400.62 15.1411C398.465 11.5888 395.495 10.4824 391.652 10.2494C387.576 9.90001 379.597 13.3941 380.762 23.3522Z" fill="#FFC500"/>
<path d="M393.923 22.4203C393.923 22.4203 393.282 19.7415 395.437 19.0427C397.592 18.3439 398.116 22.595 396.893 24.342C395.67 26.089 394.098 23.7597 393.923 22.4203Z" fill="#FF8438"/>
<path d="M395.437 25.6232C395.321 25.6232 395.262 25.5649 395.204 25.4485C395.204 25.332 395.262 25.2155 395.379 25.2155C395.728 25.1573 396.02 25.0408 396.311 24.8661C396.427 24.8079 396.544 24.8661 396.602 24.9826C396.66 25.099 396.602 25.2155 396.485 25.2737C396.194 25.3902 395.845 25.5067 395.437 25.6232C395.495 25.6232 395.495 25.6232 395.437 25.6232Z" fill="#1E1E1E"/>
<path d="M396.777 11.3557C395.204 10.5986 393.457 10.191 391.71 10.1328C390.138 10.0745 388.624 10.4239 387.226 11.0063C388.274 11.7051 391.535 13.1027 396.777 11.3557Z" fill="#1E1E1E"/>
<path d="M388.682 12.1128C392.027 12.1128 394.738 9.40124 394.738 6.05639C394.738 2.71154 392.027 0 388.682 0C385.337 0 382.625 2.71154 382.625 6.05639C382.625 9.40124 385.337 12.1128 388.682 12.1128Z" fill="#FFC500"/>
<path d="M416.518 71.6284C416.343 71.5702 416.285 71.4537 416.285 71.3372L416.693 69.8231C416.751 69.7067 416.868 69.6484 416.984 69.6484C417.1 69.7067 417.159 69.8231 417.159 69.9396L416.751 71.4537C416.751 71.5702 416.635 71.6284 416.518 71.6284Z" fill="#1E1E1E"/>
<path d="M457.69 161.659C457.748 161.31 457.748 160.96 457.69 160.611L451.226 166.027C449.595 167.366 447.557 168.123 445.402 168.123L433.639 168.065L433.697 168.997C433.814 169.171 433.988 169.23 434.163 169.288L446.392 169.171C448.372 169.171 450.294 168.414 451.808 167.133L457.166 162.649C457.457 162.416 457.632 162.067 457.69 161.659Z" fill="#1E1E1E"/>
<path d="M417.508 168.997C417.741 168.997 417.916 168.88 417.974 168.705C418.09 168.414 418.207 168.181 418.323 167.89H418.207H393.807H393.748C393.807 168.123 393.865 168.356 393.923 168.589C393.981 168.822 394.214 168.938 394.447 168.997H417.508Z" fill="#1E1E1E"/>
<path d="M444.762 158.98C444.645 158.98 444.587 158.922 444.529 158.864C444.471 158.747 444.529 158.631 444.645 158.573C445.169 158.398 445.752 158.281 446.334 158.223C446.451 158.223 446.567 158.281 446.567 158.398C446.567 158.514 446.509 158.631 446.392 158.631C445.868 158.689 445.344 158.805 444.82 158.98C444.82 158.922 444.762 158.98 444.762 158.98Z" fill="#1E1E1E"/>
<path d="M209.087 281.913C209.087 281.913 211.125 281.68 208.796 285C208.796 288.494 209.378 291.93 210.484 295.191C212.29 300.024 214.095 306.896 211.183 308.468C211.183 308.468 206.816 309.808 201.633 298.568C201.633 298.568 201.4 296.996 198.372 293.385C195.343 289.775 194.12 288.61 194.004 285.582C194.004 285.407 193.946 281.855 196.741 280.923C199.536 279.992 200.992 279.584 202.972 277.72C202.972 277.72 203.438 277.138 204.079 277.837" fill="#DE1250"/>
<path d="M298.011 264.792C298.011 264.792 298.477 263.744 299.35 264.035C299.816 264.21 300.107 264.559 300.165 265.025C300.165 265.258 300.165 265.491 300.165 265.724L312.395 270.033C312.395 270.033 315.423 271.023 315.831 272.13C316.122 273.003 316.063 273.935 315.656 274.75H288.227C287.179 271.722 288.344 270.325 289.334 268.345C289.974 267.122 290.44 265.841 290.848 264.501" fill="#DE1250"/>
<path d="M330.797 120.429C330.797 120.429 334.174 116.178 334.757 114.722C335.339 113.266 335.747 110.529 337.669 108.724C339.881 106.627 341.687 104.88 343.143 105.23C343.143 105.23 341.163 107.559 339.707 109.422C339.474 109.714 339.416 110.121 339.532 110.529C339.765 111.053 340.406 111.402 342.211 110.121C343.841 108.957 345.355 107.675 346.753 106.161C347.103 106.977 347.277 107.908 347.161 108.84C347.51 109.655 347.568 110.529 347.335 111.402C347.335 111.402 347.86 112.509 345.588 115.071C344.54 116.236 341.803 118.507 339.998 121.011C337.727 124.098 334.932 128.116 334.932 128.116L330.797 120.429Z" fill="#833C31"/>
<path d="M342.153 113.324C342.094 113.324 341.978 113.266 341.978 113.208C341.92 113.091 341.978 112.975 342.036 112.917C343.9 111.81 345.53 110.471 346.928 108.84C346.986 108.724 347.161 108.724 347.219 108.84C347.336 108.899 347.336 109.073 347.219 109.131C345.821 110.82 344.133 112.218 342.211 113.324H342.153Z" fill="#1E1E1E"/>
<path d="M343.143 115.013C343.084 115.013 342.968 114.955 342.968 114.897C342.91 114.78 342.968 114.664 343.026 114.606C343.026 114.606 345.705 113.033 347.044 111.345C347.102 111.228 347.277 111.228 347.335 111.286C347.452 111.345 347.452 111.519 347.394 111.577C345.996 113.325 343.375 114.897 343.259 114.955C343.259 115.013 343.201 115.013 343.143 115.013Z" fill="#1E1E1E"/>
<path d="M245.658 184.662C245.658 184.662 240.999 184.254 238.728 192.814C237.855 196.25 237.622 201.142 237.272 207.722C236.515 223.387 233.254 234.103 230.517 237.888C227.78 241.673 217.705 252.039 211.824 261.997C208.854 267.063 206.233 272.304 204.078 277.779C204.078 277.779 207.107 280.923 209.611 282.437C209.611 282.437 237.68 254.019 241.873 249.418C246.066 244.818 250.084 234.801 254.335 222.922L258.586 210.984C258.586 210.984 274.892 215.002 299.933 218.321C299.933 218.321 292.246 238.179 291.023 257.571C290.906 259.901 291.197 261.997 290.848 264.385C290.848 264.385 294.983 265.491 297.953 264.734C297.953 264.734 310.007 233.346 313.851 223.446C318.043 212.672 317.578 209.586 307.154 204.752C296.73 199.919 266.914 189.611 266.914 189.611L245.658 184.662Z" fill="#D4D4D4"/>
<path d="M259.11 191.708L260.1 188.039L245.658 184.72C245.658 184.72 241.814 184.371 239.427 190.718C240.417 191.126 247.289 193.63 259.11 191.708Z" fill="#1E1E1E"/>
<path d="M217.938 198.638C216.774 199.803 215.551 200.851 214.328 201.841C211.183 204.578 208.33 207.548 205.826 210.809C203.962 213.371 204.777 214.187 204.777 214.187C204.777 214.187 204.195 215.351 204.836 215.934C205.301 216.341 206.35 215.642 206.35 215.642C206.35 215.642 205.651 216.574 206.524 217.098C207.514 217.739 209.203 215.409 210.368 213.954C210.368 213.954 209.145 215.642 210.193 216.283C211.241 216.924 213.047 214.128 215.318 211.799C217.589 209.47 220.792 206.441 222.015 203.297C223.238 200.152 221.491 195.668 221.491 195.668L217.938 198.638Z" fill="#833C31"/>
<path d="M206.291 215.933C206.233 215.933 206.233 215.933 206.175 215.875C206.059 215.817 206.059 215.7 206.117 215.584C207.689 213.196 209.436 210.867 211.241 208.654C211.3 208.538 211.474 208.538 211.533 208.596C211.649 208.654 211.649 208.829 211.591 208.887C209.786 211.1 208.097 213.371 206.524 215.759C206.408 215.875 206.35 215.933 206.291 215.933Z" fill="#1E1E1E"/>
<path d="M204.719 214.42C204.661 214.42 204.661 214.42 204.603 214.361C204.486 214.303 204.486 214.187 204.544 214.07C204.661 213.895 207.747 209.411 209.727 207.548C209.786 207.49 209.96 207.49 210.019 207.548C210.077 207.606 210.077 207.781 210.019 207.839C208.039 209.703 204.894 214.245 204.894 214.303C204.894 214.42 204.836 214.42 204.719 214.42Z" fill="#1E1E1E"/>
<path d="M210.193 214.42C210.135 214.42 210.077 214.42 210.019 214.361C209.902 214.303 209.902 214.128 210.019 214.07C210.019 214.07 211.649 212.265 213.804 209.411C213.862 209.295 214.037 209.295 214.095 209.353C214.211 209.411 214.211 209.586 214.153 209.644C211.998 212.498 210.368 214.303 210.368 214.303C210.31 214.42 210.251 214.42 210.193 214.42Z" fill="#1E1E1E"/>
<path d="M331.845 119.381C331.612 119.264 331.263 119.323 331.088 119.497C328.526 121.943 315.889 138.365 308.901 142.209C302.611 145.703 289.858 147.625 283.161 148.789C276.464 149.954 265.341 148.091 265.341 148.091L259.576 154.263C256.14 153.798 253.927 157.525 253.927 157.525C253.927 157.525 252.18 159.155 240.65 172.84C230.051 185.419 223.005 192.523 218.055 197.066C217.938 197.182 217.88 197.357 217.88 197.532C218.171 198.638 219.511 202.773 223.645 203.879C223.762 203.937 223.936 203.879 223.995 203.821C225.276 202.773 234.593 193.63 242.339 186.118C246.124 189.204 254.684 193.979 269.068 190.602C269.068 190.602 271.863 189.786 272.388 187.981C272.737 186.933 272.97 185.826 273.086 184.72C274.426 182.332 276.173 180.236 278.211 178.489C281.88 175.228 282.637 170.627 282.695 166.143C282.695 166.143 294.051 162.242 302.029 159.388C308.085 157.233 311.871 155.486 317.519 150.653C322.819 146.169 333.941 131.261 336.678 126.311C336.795 126.194 336.853 126.02 336.853 125.787C336.853 124.855 336.271 121.594 331.845 119.381Z" fill="url(#paint3_linear_15_1445)"/>
<path d="M280.599 166.958C280.482 166.958 280.424 166.9 280.366 166.784C280.308 166.667 280.424 166.551 280.541 166.492L282.695 165.91C282.812 165.852 282.928 165.968 282.986 166.085C283.045 166.201 282.928 166.318 282.812 166.376L280.599 166.958C280.657 166.958 280.599 166.958 280.599 166.958Z" fill="#1E1E1E"/>
<path d="M273.145 184.953C273.028 184.953 272.912 184.836 272.912 184.72C272.912 184.72 272.854 183.322 272.795 182.798C272.795 182.682 272.854 182.565 272.97 182.565C273.086 182.565 273.203 182.623 273.203 182.74C273.261 183.264 273.319 184.662 273.319 184.662C273.378 184.836 273.261 184.895 273.145 184.953Z" fill="#1E1E1E"/>
<path d="M242.746 186.874C242.688 186.874 242.63 186.874 242.63 186.816C242.513 186.758 242.455 186.641 242.339 186.583C241.582 186.001 240.592 185.244 240.533 184.37C240.475 183.322 241.232 182.565 242.921 181.866C246.357 180.527 248.919 177.207 251.831 170.336C252.879 167.89 253.811 165.328 254.51 162.765C254.568 162.649 254.684 162.591 254.801 162.591C254.917 162.649 254.976 162.765 254.976 162.882C254.277 165.502 253.403 168.065 252.297 170.51C249.327 177.499 246.648 180.934 243.154 182.274C241.174 183.031 240.999 183.788 240.999 184.312C241.057 185.011 241.931 185.71 242.63 186.234C242.746 186.35 242.863 186.408 242.979 186.467C243.096 186.525 243.096 186.7 243.037 186.758C242.863 186.816 242.805 186.874 242.746 186.874Z" fill="#1E1E1E"/>
<path d="M258.586 211.275H258.528C250.55 208.654 248.453 204.287 248.337 204.112C248.279 203.996 248.337 203.879 248.453 203.821C248.57 203.763 248.686 203.821 248.744 203.937C248.744 203.996 250.841 208.305 258.644 210.867C258.761 210.926 258.819 211.042 258.761 211.158C258.761 211.217 258.703 211.275 258.586 211.275Z" fill="#1E1E1E"/>
<path d="M280.249 141.51C280.249 141.51 285.665 140.811 286.888 137.667C288.111 134.522 284.326 130.795 282.753 128.815C282.171 128.116 281.531 127.359 280.948 126.66C278.91 124.273 275.765 123.05 272.621 123.516C270 123.923 267.321 125.612 266.157 130.213C263.653 140.52 280.249 141.51 280.249 141.51Z" fill="#833C31"/>
<path d="M275.125 131.028C278.036 130.271 280.249 127.883 280.832 124.971C281.88 119.905 279.201 115.13 275.299 114.314C271.398 113.499 268.02 116.294 266.215 122.176C266.215 122.176 260.1 123.05 258.644 127.767C257.188 132.484 259.751 135.337 260.566 137.492C261.381 139.646 260.158 141.918 258.178 143.49C256.198 145.062 245.25 150.478 248.046 156.418C250.841 162.358 256.897 159.213 256.897 159.213C256.897 159.213 261.847 164.687 268.486 158.281C273.378 153.506 274.775 150.827 274.775 150.827L283.219 148.789C283.219 148.789 286.131 143.199 277.046 133.706L275.125 131.028Z" fill="#1E1E1E"/>
<path d="M277.105 130.911C277.105 130.911 275.241 129.048 273.96 130.445C273.028 131.494 274.076 133.881 275.823 134.58C277.046 135.104 278.677 133.939 278.328 132.658C278.095 132.018 277.687 131.377 277.105 130.911Z" fill="#833C31"/>
<path d="M277.629 134.93C277.57 134.93 277.512 134.871 277.454 134.813C277.396 134.697 277.396 134.58 277.512 134.522C277.862 134.289 278.095 134.056 278.328 133.707C278.386 133.59 278.502 133.59 278.619 133.648C278.735 133.707 278.735 133.823 278.677 133.94C278.444 134.289 278.095 134.638 277.745 134.871C277.687 134.871 277.629 134.93 277.629 134.93Z" fill="#1E1E1E"/>
<path d="M207.864 269.393C205.476 274.226 204.137 277.837 204.137 277.837C204.137 277.837 206.699 281.506 209.669 282.554C209.669 282.554 212.348 279.759 216.249 275.857C211.125 273.644 208.621 270.499 207.864 269.393Z" fill="#833C31"/>
<path d="M291.081 256.756C290.906 259.085 290.964 261.997 290.848 264.443C290.848 264.443 294.983 265.608 297.953 264.909C297.953 264.909 298.884 262.23 300.457 258.27C296.031 259.144 291.78 257.106 291.081 256.756Z" fill="#833C31"/>
<path d="M299.933 218.612C299.874 218.612 299.874 218.612 299.816 218.554C299.7 218.496 299.7 218.379 299.758 218.263C300.224 217.622 300.748 216.982 301.33 216.458C301.447 216.4 301.563 216.4 301.621 216.458C301.68 216.516 301.68 216.691 301.621 216.749C301.039 217.273 300.573 217.855 300.107 218.496C300.049 218.554 299.991 218.612 299.933 218.612Z" fill="#1E1E1E"/>
<path d="M205.942 298.277C201.341 292.454 204.311 290.474 200.526 284.65C198.43 281.447 196.566 281.273 195.343 281.738C193.946 283.136 194.004 285.349 194.004 285.524C194.12 288.61 195.343 289.717 198.371 293.327C201.4 296.938 201.633 298.51 201.633 298.51C206.175 308.352 210.077 308.585 211.008 308.468C213.396 307.245 210.368 303.809 205.942 298.277Z" fill="#1E1E1E"/>
<path d="M287.994 273.76C288.053 274.11 288.169 274.401 288.286 274.692H315.714C315.889 274.401 315.947 274.052 316.005 273.76H288.053H287.994Z" fill="#1E1E1E"/>
<path d="M253.17 164.746C253.054 164.746 252.937 164.629 252.937 164.513L253.112 162.882C253.112 162.766 253.228 162.649 253.345 162.707C253.461 162.707 253.578 162.824 253.52 162.94L253.345 164.571C253.403 164.687 253.287 164.746 253.17 164.746Z" fill="#1E1E1E"/>
<path d="M346.287 106.627C346.229 106.627 346.113 106.569 346.113 106.511C346.054 106.394 346.112 106.278 346.171 106.22C346.229 106.22 349.548 104.356 350.305 102.667C350.364 102.551 350.48 102.493 350.597 102.551C350.713 102.609 350.771 102.726 350.713 102.842C349.898 104.706 346.52 106.511 346.345 106.627C346.404 106.569 346.345 106.627 346.287 106.627Z" fill="#1E1E1E"/>
<path d="M202.797 277.895C202.797 277.895 203.496 276.905 204.079 277.255C205.127 277.779 205.185 279.235 205.534 279.584L204.253 279.118L202.797 277.895Z" fill="#DE1250"/>
<defs>
<linearGradient id="paint0_linear_15_1445" x1="415.068" y1="355.216" x2="198.389" y2="355.216" gradientUnits="userSpaceOnUse">
<stop stop-color="#1D93FF"/>
<stop offset="0.17" stop-color="#219CF5"/>
<stop offset="0.54" stop-color="#2D9CDB"/>
<stop offset="1" stop-color="#3DF1FD"/>
</linearGradient>
<linearGradient id="paint1_linear_15_1445" x1="60.2451" y1="382.047" x2="282.258" y2="382.047" gradientUnits="userSpaceOnUse">
<stop stop-color="#1C48BF"/>
<stop offset="1" stop-color="#3D8AFD"/>
</linearGradient>
<linearGradient id="paint2_linear_15_1445" x1="356.164" y1="67.9972" x2="472.397" y2="67.9972" gradientUnits="userSpaceOnUse">
<stop stop-color="#2151F9"/>
<stop offset="1" stop-color="#3AC4EF"/>
</linearGradient>
<linearGradient id="paint3_linear_15_1445" x1="277.403" y1="119.312" x2="277.403" y2="203.865" gradientUnits="userSpaceOnUse">
<stop offset="0.03" stop-color="#FFC401"/>
<stop offset="1" stop-color="#FD2B50"/>
</linearGradient>
</defs>
</svg>
