<svg width="535" height="418" viewBox="0 0 535 418" fill="none" xmlns="http://www.w3.org/2000/svg">
<g clip-path="url(#clip0_15_364)">
<g opacity="0.1">
<path opacity="0.1" d="M316.434 311.024L310.97 313.08C310.05 313.404 309.563 314.432 309.942 315.352C310.158 315.947 310.699 316.38 311.294 316.488L325.144 318.814L331.366 316.109C331.366 316.109 315.027 323.521 329.959 325.09C350.192 327.2 361.824 318.814 361.824 318.814C361.824 318.814 386.007 320.113 392.012 314.757C396.773 310.483 391.038 309.401 377.351 308.048C377.351 308.048 361.283 298.527 347.758 301.719C334.233 304.91 316.434 311.024 316.434 311.024Z" fill="black"/>
<path opacity="0.1" d="M251.297 352.573C241.234 351.816 214.184 354.034 214.184 354.034C204.392 355.17 202.065 351.058 202.065 351.058C202.065 351.058 203.851 352.086 195.465 351.058C187.079 350.03 189.027 345.378 189.027 345.378L192.76 342.727L199.739 326.875L133.195 318.111L196.547 304.424H228.791L263.632 306.533L273.153 312.214H320.383L353.168 320.383L341.699 331.311L292.63 329.905L259.899 340.725C259.899 340.725 319.842 342.456 312.484 347.65C305.127 352.843 283.757 354.953 251.297 352.573Z" fill="black"/>
<path opacity="0.1" d="M2.86731 338.507L59.2941 343.268L56.4809 347.055L207.205 346.135L211.803 328.498L83.2607 326.497L75.362 326.821L78.7703 327.254L106.686 331.149L130.599 333.8L194.708 341.212L11.6316 337.263L2.86731 338.507Z" fill="black"/>
<path opacity="0.1" d="M377.513 402.778C369.507 401.967 347.325 398.071 368.208 397.639C389.091 397.206 465.697 402.995 465.697 402.995L458.664 400.506C458.664 400.506 464.182 396.935 477.762 397.368C491.341 397.801 511.683 402.129 524.126 406.511C537.38 411.218 550.04 419.928 487.824 416.412C425.609 412.895 387.089 403.806 377.513 402.778Z" fill="black"/>
</g>
<path d="M138.335 58.5909L134.818 35.0571L144.448 32.0816L148.452 56.6973L138.335 58.5909Z" fill="#DADADA"/>
<path d="M144.448 32.0816L164.844 36.3555L168.144 57.2924L148.452 56.6973L144.448 32.0816Z" fill="#C0C0C0"/>
<path d="M138.335 58.5908L159.434 59.0777L168.144 57.2924L148.452 56.6973L138.335 58.5908Z" fill="#1E1E1E"/>
<path d="M290.249 84.559V81.2589L270.557 54.7496L271.909 80.0687L290.249 84.559Z" fill="#3D67FE"/>
<path d="M212.507 201.903L191.949 202.444V229.981H212.507V201.903Z" fill="#DADADA"/>
<path d="M212.507 165.385H191.949V174.474V202.444L212.507 201.903V165.385Z" fill="#00D5FF"/>
<path d="M191.949 229.981V305.451L212.507 307.724V229.981H191.949Z" fill="#FF8C19"/>
<path d="M228.737 201.903H212.507V229.981H228.737V201.903Z" fill="#A4A4A4"/>
<path d="M228.737 165.385H212.507V201.903H228.737V165.385Z" fill="url(#paint0_linear_15_364)"/>
<path d="M228.791 229.981H212.507V261.36L228.791 259.845V229.981Z" fill="#98113D"/>
<path d="M203.472 273.099V280.403L212.507 279.213V272.18L203.472 273.099Z" fill="#8C8C8C"/>
<path d="M212.507 272.18V261.359L203.472 262.171V273.099L212.507 272.18Z" fill="#A4A4A4"/>
<path d="M203.472 262.171L183.184 261.035V272.126L203.472 273.099V262.171Z" fill="#DADADA"/>
<path d="M183.184 272.126V279.754L203.472 280.403V273.099L183.184 272.126Z" fill="#D0D0D0"/>
<path d="M212.507 307.724L228.791 304.478V277.103L212.507 279.213V307.724Z" fill="#E57917"/>
<path d="M228.791 270.503V259.845L212.507 261.36V272.18L228.791 270.503Z" fill="#98113D"/>
<path d="M212.507 272.18V279.213L228.791 277.103V270.503L212.507 272.18Z" fill="#646464"/>
<path d="M183.184 261.035L191.57 233.931H194.491L203.472 258.763V262.171L183.184 261.035Z" fill="#00D5FF"/>
<path d="M203.472 258.763L214.292 258.059V261.197L203.472 262.171V258.763Z" fill="#1E1E1E"/>
<path d="M194.491 233.931H204.284L214.292 258.059L203.472 258.763L194.491 233.931Z" fill="#004AB5"/>
<path d="M220.189 237.718L209.531 237.393V250.648L220.189 250.918V237.718Z" fill="#FF2B50"/>
<path d="M209.531 237.393L211.804 237.285V237.447L209.531 237.393Z" fill="#FFC402"/>
<path d="M209.531 250.648V265.904L220.189 266.445V250.918L209.531 250.648Z" fill="#FF8C19"/>
<path d="M220.189 266.445L241.126 263.307V249.025L220.189 250.918V266.445Z" fill="#E57917"/>
<path d="M220.189 237.718V250.918L241.126 249.025V235.986L220.189 237.718Z" fill="#98113D"/>
<path d="M221.65 226.302L241.126 224.788V198.495H229.927L221.65 223.002V226.302Z" fill="#004AB5"/>
<path d="M221.65 226.302V237.555L220.189 237.718L241.126 235.986V224.788L221.65 226.302Z" fill="#646464"/>
<path d="M221.65 226.302H211.803V237.447L220.189 237.718L221.65 237.555V226.302Z" fill="#C0C0C0"/>
<path d="M229.927 198.495H220.622L211.803 223.002H221.65L229.927 198.495Z" fill="#00D5FF"/>
<path d="M221.65 223.002H211.803V226.302H221.65V223.002Z" fill="url(#paint1_linear_15_364)"/>
<path d="M241.126 263.307V270.394L224.625 273.099V265.796L241.126 263.307Z" fill="#646464"/>
<path d="M213.751 266.12V272.396L224.625 273.099V265.796L220.189 266.445L213.751 266.12Z" fill="#C0C0C0"/>
<path d="M153.375 201.903H163.708V185.132L153.375 185.456V201.903Z" fill="#DADADA"/>
<path d="M153.375 185.457V170.687L131.789 172.526V201.903H153.375V185.457Z" fill="#3D67FE"/>
<path d="M163.708 185.132V201.903H184.753V185.781L163.708 185.132Z" fill="#A4A4A4"/>
<path d="M153.375 201.903H131.789V209.315H163.708V201.903H153.375Z" fill="url(#paint2_linear_15_364)"/>
<path d="M184.753 201.903H163.708V209.315H184.753V201.903Z" fill="#004AB5"/>
<path d="M152.239 242.046V214.887H142.609V242.424L152.239 242.046Z" fill="#98113D"/>
<path d="M142.609 242.424L121.077 241.883V256.328L142.609 257.897V242.424Z" fill="#DADADA"/>
<path d="M142.609 257.897L152.239 256.977V242.046L142.609 242.424V257.897Z" fill="#A4A4A4"/>
<path d="M142.609 257.897L121.077 256.328V273.099L142.609 274.831V257.897Z" fill="#FFC402"/>
<path d="M142.609 257.897V274.831L152.239 273.424V256.977L142.609 257.897Z" fill="#FF8C19"/>
<path d="M142.609 283L152.239 281.323V273.424L142.609 274.831V283Z" fill="#004AB5"/>
<path d="M121.077 273.099V280.728L142.609 283V274.831L121.077 273.099Z" fill="url(#paint3_linear_15_364)"/>
<path d="M141.148 209.315H119.724V214.887H141.148V209.315Z" fill="#FF8C19"/>
<path d="M152.239 209.315H141.148V214.887H152.239V209.315Z" fill="#E57917"/>
<path d="M141.148 209.315L131.031 182.697H128.705L119.724 209.315H141.148Z" fill="url(#paint4_linear_15_364)"/>
<path d="M142.609 183.509L131.031 182.697L141.148 209.315H152.239L142.609 183.509Z" fill="url(#paint5_linear_15_364)"/>
<path d="M133.628 238.8C132.817 238.259 131.843 237.934 130.815 237.934C128.489 237.934 126.487 239.557 125.405 241.992L130.977 242.1C131.518 240.801 132.438 239.611 133.628 238.8Z" fill="#1E1E1E"/>
<path d="M121.077 214.887V241.883L125.405 241.992C126.487 239.557 128.489 237.934 130.815 237.934C131.843 237.934 132.817 238.259 133.628 238.8C134.873 239.665 135.792 240.855 136.333 242.262L139.633 242.316L142.609 242.37V214.833H121.077V214.887Z" fill="url(#paint6_linear_15_364)"/>
<path d="M130.977 242.1L136.333 242.208C135.792 240.801 134.873 239.611 133.628 238.746C132.384 239.665 131.464 240.801 130.977 242.1Z" fill="#004AB5"/>
<path d="M152.239 209.315V242.046L174.258 240.693V209.315H152.239Z" fill="#A4A4A4"/>
<path d="M174.258 240.693L183.779 240.044V247.185L152.239 249.89V242.046L174.258 240.693Z" fill="url(#paint7_linear_15_364)"/>
<path d="M183.78 240.044H174.258V240.693L183.78 240.044Z" fill="#00D5FF"/>
<path d="M159.38 282.621L148.831 281.918L142.609 283L131.843 281.864V287.111L164.736 290.087V281.864L159.38 282.621Z" fill="#DADADA"/>
<path d="M164.736 281.864V290.087L186.214 286.083V278.78L164.736 281.864Z" fill="#A4A4A4"/>
<path d="M133.141 287.22V318.165L153.375 320.816V289.059L133.141 287.22Z" fill="#D0D0D0"/>
<path d="M164.736 290.087L153.375 289.059V320.816L175.123 316.38V288.139L164.736 290.087Z" fill="#A4A4A4"/>
<path d="M159.38 250.918L148.831 250.161V265.147L159.38 265.904V250.918Z" fill="url(#paint8_linear_15_364)"/>
<path d="M148.831 265.147V281.918L159.38 282.621V265.904L148.831 265.147Z" fill="url(#paint9_linear_15_364)"/>
<path d="M190.867 247.997L183.78 247.185L148.831 250.161L159.38 250.918L190.867 247.997Z" fill="#00D5FF"/>
<path d="M159.38 282.621L190.867 278.077V261.468L159.38 265.904V282.621Z" fill="#98113D"/>
<path d="M159.38 250.918V265.904L190.867 261.468V247.997L159.38 250.918Z" fill="url(#paint10_linear_15_364)"/>
<path d="M230.685 133.25V96.2989H217.592V137.578L230.685 133.25Z" fill="url(#paint11_linear_15_364)"/>
<path d="M293.387 153.159H283.92L266.77 150.454L268.284 150.345L293.387 153.159Z" fill="#005500"/>
<path d="M222.028 100.735L239.287 98.2465V60.1056L222.028 56.4809V100.735Z" fill="#FF8C19"/>
<path d="M222.028 56.4809L239.287 60.1056V43.9837L222.028 40.0884V56.4809Z" fill="#3DE7FE"/>
<path d="M222.028 9.30518V14.4447L239.287 21.1532V16.6087L222.028 9.30518Z" fill="#FF2B50"/>
<path d="M231.063 22.4517C230.035 22.5058 229.007 22.9386 228.358 23.7501C229.548 25.2108 230.198 27.0503 230.144 28.8897C230.198 30.7832 229.548 32.6226 228.358 34.0292C229.007 34.8407 230.035 35.2735 231.063 35.3276C233.552 35.3276 235.554 32.4603 235.554 28.8356C235.554 25.2108 233.552 22.4517 231.063 22.4517Z" fill="#1E1E1E"/>
<path d="M222.028 14.4448V40.0884L239.232 43.9836V21.1532L222.028 14.4448ZM231.063 35.4358C230.035 35.3817 229.007 34.9489 228.358 34.1373C227.168 32.6766 226.519 30.8372 226.573 28.9978C226.519 27.1043 227.168 25.319 228.358 23.8583C229.007 23.0467 230.035 22.5598 231.063 22.5598C233.552 22.5598 235.554 25.4272 235.554 29.0519C235.554 32.6766 233.552 35.4358 231.063 35.4358Z" fill="#FF8C19"/>
<path d="M222.028 9.30518L199.901 14.9316V20.0171L222.028 14.4447V9.30518Z" fill="#FE9643"/>
<path d="M222.028 40.0884L199.901 44.4706V60.9171L222.028 56.4809V40.0884Z" fill="#3D67FE"/>
<path d="M199.901 60.9171V104.414L222.028 100.735V56.4809L199.901 60.9171Z" fill="#FFC600"/>
<path d="M210.992 28.9438C210.992 26.5634 211.912 24.4534 213.21 23.3173C212.615 22.7763 211.804 22.4517 210.992 22.4517C208.503 22.4517 206.502 25.319 206.502 28.9438C206.502 32.5685 208.503 35.4358 210.992 35.4358C211.804 35.4358 212.615 35.1112 213.21 34.5702C211.858 33.4341 210.992 31.3242 210.992 28.9438Z" fill="#1E1E1E"/>
<path d="M199.901 20.0171V44.4705L222.083 40.0884V14.4448L199.901 20.0171ZM210.992 35.4358C208.503 35.4358 206.502 32.5684 206.502 28.9437C206.502 25.319 208.503 22.4516 210.992 22.4516C211.803 22.4516 212.615 22.7762 213.21 23.3172C214.563 24.4534 215.428 26.5092 215.428 28.9437C215.428 31.3782 214.509 33.434 213.21 34.5702C212.615 35.0571 211.803 35.3817 210.992 35.4358Z" fill="url(#paint12_linear_15_364)"/>
<path d="M222.029 9.30529L200.28 0V14.8235L222.029 9.30529Z" fill="#FFC600"/>
<path d="M200.28 0L215.428 5.57235L239.287 16.6089L222.029 9.30529L200.28 0Z" fill="#FF8C19"/>
<path d="M189.73 105.983V82.5033L212.507 78.608V102.304L189.73 105.983Z" fill="url(#paint13_linear_15_364)"/>
<path d="M212.507 78.608L222.461 81.2049V133.087L209.91 130.815L212.507 125.189V78.608Z" fill="#3D67FE"/>
<path d="M212.507 78.608L200.334 51.5037L198.603 51.8824L189.73 82.5033L212.507 78.608Z" fill="#FFC600"/>
<path d="M200.334 51.5037L210.343 54.1546L222.461 81.2048L212.507 78.608L200.334 51.5037Z" fill="#FF8C19"/>
<path d="M230.685 145.314V133.25L213.535 130.382V143.583L230.685 145.314Z" fill="#646464"/>
<path d="M213.535 130.382L203.256 131.843V145.206L213.535 143.583V130.382Z" fill="url(#paint14_linear_15_364)"/>
<path d="M213.535 158.298L230.685 159.813V145.314L213.535 143.583V158.298Z" fill="#FF8C19"/>
<path d="M203.256 159.38V167.008L213.535 165.71V158.298L203.256 159.38Z" fill="#FF2B50"/>
<path d="M213.535 143.583L203.256 145.206V151.752V159.38L213.535 158.298V143.583Z" fill="#FFC402"/>
<path d="M213.535 158.298V165.71L230.685 167.008V159.813L213.535 158.298Z" fill="#98113D"/>
<path d="M185.457 150.345L203.31 151.752C203.31 151.752 206.664 121.564 232.578 116.208L228.358 106.578L191.299 114.314L181.994 147.586L185.457 150.345Z" fill="#1E1E1E"/>
<path d="M232.578 116.208V99.2203L182.048 107.065L181.561 150.345H185.457C185.457 150.345 188.108 127.84 205.149 117.344C222.191 106.849 232.578 116.208 232.578 116.208Z" fill="#FF2B50"/>
<path d="M203.256 167.008L220.297 167.928L230.685 167.008L213.535 165.71L203.256 167.008Z" fill="#1E1E1E"/>
<path d="M183.13 165.385L203.256 167.008V159.38L183.13 157.649V165.385Z" fill="#FFC600"/>
<path d="M185.456 150.345H183.13V157.649L203.256 159.38V151.752L185.456 150.345Z" fill="url(#paint15_linear_15_364)"/>
<path d="M220.189 173.987V167.928L163.708 163.979V169.767L220.189 173.987Z" fill="url(#paint16_linear_15_364)"/>
<path d="M220.189 173.987L191.949 174.474L163.708 172.418V169.767L220.189 173.987Z" fill="#1E1E1E"/>
<path d="M243.29 152.509V223.002L254.272 225.329H266.77V150.453L243.29 152.509Z" fill="url(#paint17_linear_15_364)"/>
<path d="M286.029 152.618L266.77 150.453V185.132H286.029V152.618Z" fill="url(#paint18_linear_15_364)"/>
<path d="M286.029 185.132H266.77V225.329H286.029V185.132Z" fill="#1E1E1E"/>
<path d="M283 257.681L256.923 256.545V289.6L283 291.872V257.681Z" fill="url(#paint19_linear_15_364)"/>
<path d="M256.923 289.6V322.006L283 325.144V291.872L256.923 289.6Z" fill="#D0D0D0"/>
<path d="M283 257.681V291.872L299.987 288.031V255.084L283 257.681Z" fill="#646464"/>
<path d="M283 325.144L299.987 320.113V288.031L283 291.872V325.144Z" fill="#A4A4A4"/>
<path d="M269.962 257.194L282.837 257.681L269.962 257.14V257.194Z" fill="#00EB00"/>
<path d="M269.962 238.583V257.14L282.837 257.681V238.8L269.962 238.583Z" fill="#00D5FF"/>
<path d="M269.745 223.435V238.583L282.838 238.8V223.597L269.745 223.435Z" fill="#FFC402"/>
<path d="M282.838 223.597V238.8L299.987 237.393L300.745 237.339L300.691 223.002L282.838 223.597Z" fill="#FF8C19"/>
<path d="M269.745 223.435L244.589 223.002V256.058L269.962 257.194V238.583L282.838 238.8L269.745 238.583V223.435Z" fill="#FF8C19"/>
<path d="M282.838 238.8V257.681H283L299.987 255.084V237.393L282.838 238.8Z" fill="#004AB5"/>
<path d="M259.304 187.242V224.571L269.15 223.435V187.242H259.304Z" fill="#A4A4A4"/>
<path d="M234.417 187.945V224.463L259.304 224.571V187.242L234.417 187.945Z" fill="url(#paint20_linear_15_364)"/>
<path d="M282.838 210.667V223.597L300.474 223.002V210.18L282.838 210.667Z" fill="#646464"/>
<path d="M270.773 210.667V223.435L282.837 223.597V210.667H270.773Z" fill="#C0C0C0"/>
<path d="M269.962 206.664V210.667H270.773H282.837L284.136 210.613V206.502L269.962 206.664Z" fill="#3D67FE"/>
<path d="M301.015 206.177L284.136 206.502V210.613L301.015 210.18V206.177Z" fill="#3DE7FE"/>
<path d="M292.305 178.64L290.033 178.694L284.136 206.502L301.015 206.177L292.305 178.64Z" fill="#3D67FE"/>
<path d="M277.049 178.802L269.962 206.664L284.136 206.502L290.033 178.694L277.049 178.802Z" fill="url(#paint21_linear_15_364)"/>
<path d="M258.492 187.242L233.768 187.945V183.13L258.492 182.319V187.242Z" fill="url(#paint22_linear_15_364)"/>
<path d="M268.771 187.242V182.319H258.492V187.242H259.304H268.771Z" fill="#646464"/>
<path d="M233.768 183.13L244.048 154.295L246.103 154.078L259.304 182.319H258.492L233.768 183.13Z" fill="#FFC600"/>
<path d="M246.103 154.078L256.22 155.052L268.771 182.319H259.304L246.103 154.078Z" fill="#FF8C19"/>
<path d="M290.249 96.2989V84.5591L271.909 80.0687V94.0267L290.249 96.2989Z" fill="#E57917"/>
<path d="M271.909 80.0687L221.217 88.7248V100.843L271.909 94.0267V80.0687Z" fill="#FF8C19"/>
<path d="M266.77 150.453L242.37 152.563V145.422L268.284 142.555V150.345L266.77 150.453Z" fill="#FFC402"/>
<path d="M293.387 146.504L268.284 142.555V150.345L293.387 153.159V146.504Z" fill="#FF8C19"/>
<path d="M270.557 54.7496L231.821 61.8909L221.217 88.7248L271.909 80.0687L270.557 54.7496Z" fill="url(#paint23_linear_15_364)"/>
<path opacity="0.3" d="M259.845 72.711L262.604 63.6221L271.098 65.2451L271.909 80.0687V92.2954L264.389 93.702L259.845 72.711Z" fill="black"/>
<path d="M257.464 140.986L232.578 144.07L242.37 145.422L268.284 142.555L257.464 140.986Z" fill="#1E1E1E"/>
<path d="M232.578 135.305V144.07L257.464 140.986V132.222L232.578 135.305Z" fill="#C0C0C0"/>
<path d="M257.464 87.3182L232.578 91.2676V135.305L257.464 132.222V87.3182Z" fill="url(#paint24_linear_15_364)"/>
<path d="M168.307 108.201L143.474 112.204V156.188L168.307 153.104V108.201Z" fill="url(#paint25_linear_15_364)"/>
<path d="M293.387 122.213L257.464 114.26V124.107L286.462 130.382V145.422L293.387 146.504V122.213Z" fill="#1E1E1E"/>
<path d="M267.743 126.325V134.223L257.464 132.222V140.986L286.462 145.422V130.382L267.743 126.325Z" fill="#646464"/>
<path d="M267.743 126.325L257.464 124.107V132.222L267.743 134.223V126.325Z" fill="#3D67FE"/>
<path d="M257.464 128.002V87.3182L266.77 89.3741V128.002H257.464Z" fill="#3D67FE"/>
<path d="M303.937 126.325V97.435C303.937 97.435 299.609 92.6741 288.464 91.4839C277.319 90.2937 259.845 91.8085 259.845 91.8085V124.107L303.937 126.325Z" fill="url(#paint26_linear_15_364)"/>
<g opacity="0.3">
<path opacity="0.3" d="M303.937 97.435C303.937 97.435 299.609 92.6742 288.464 91.4839C287.328 91.3757 286.138 91.2675 284.947 91.2134V125.351L303.937 126.325V97.435Z" fill="black"/>
</g>
<path d="M259.845 124.106C259.845 124.106 279.213 121.347 294.253 123.565C309.293 125.784 302.26 127.407 302.26 127.407L278.834 129.733L259.845 124.106Z" fill="#1E1E1E"/>
<path d="M267.743 134.223V126.379L283.324 124.107V131.843L267.743 134.223Z" fill="#C0C0C0"/>
<path d="M286.462 137.578L267.743 134.223L283.324 131.843L299.879 135.305L286.462 137.578Z" fill="#1E1E1E"/>
<path d="M299.879 135.305V127.353L283.324 124.107V131.843L299.879 135.305Z" fill="#646464"/>
<path d="M232.578 91.2675V88.1838L257.464 83.9639V87.3182L232.578 91.2675Z" fill="#FFC600"/>
<path d="M232.578 88.1838L241.938 57.617L244.264 57.2383L257.464 83.9639L232.578 88.1838Z" fill="#FF2B50"/>
<path d="M244.264 57.2383L254.272 60.0515L266.77 86.2362L257.464 83.9639L244.264 57.2383Z" fill="#98113D"/>
<path d="M257.464 83.9639L266.77 86.2361V89.374L257.464 87.3182V83.9639Z" fill="#E57917"/>
<path d="M183.13 121.401V108.309L175.556 106.47V109.499L171.066 108.688V105.442L163.708 103.656V118.21L183.13 121.401Z" fill="#98113D"/>
<path d="M155.863 108.688V106.957L149.804 105.604V109.499L155.863 108.688Z" fill="#1E1E1E"/>
<path d="M175.556 109.499V106.47L171.066 107.444V108.688L175.556 109.499Z" fill="#1E1E1E"/>
<path d="M163.708 103.656L155.864 104.739V108.688L149.804 109.499V105.604L143.042 106.578V120.644L163.708 118.21V103.656Z" fill="#FF2B50"/>
<path d="M163.708 163.979L183.13 165.385V136.333L163.708 133.682V163.979Z" fill="#A4A4A4"/>
<path d="M143.042 136.333V165.385L163.708 163.979V133.682L143.042 136.333Z" fill="#DADADA"/>
<path d="M143.042 66.3813V106.578L147.748 105.929V65.4615L143.042 66.3813Z" fill="#FFC402"/>
<path d="M182.752 66.3813L177.342 65.2452V106.903L182.752 108.201V66.3813Z" fill="#FF8C19"/>
<path d="M177.341 65.2452L173.338 66.6518V106.957L175.556 106.47L177.341 106.903V65.2452Z" fill="#FFC402"/>
<path d="M157.432 63.6222V104.522L163.708 103.657V62.3779L157.432 63.6222Z" fill="#FFC402"/>
<path d="M147.749 65.4615V105.929L149.804 105.604L152.185 106.145L152.293 67.3551L147.749 65.4615Z" fill="#FF8C19"/>
<path d="M163.708 62.3779V103.657L169.172 104.955V63.514L163.708 62.3779Z" fill="#FF8C19"/>
<path d="M169.172 63.514V67.0846L173.23 67.9502L173.338 66.6518L177.341 65.2452L169.172 63.514Z" fill="#1E1E1E"/>
<path d="M157.432 63.6221L151.806 64.7041L157.432 65.8944V63.6221Z" fill="#1E1E1E"/>
<path d="M163.708 45.3362V62.3779L173.446 64.4337V48.2036L163.708 45.3362Z" fill="#C0C0C0"/>
<path d="M182.752 50.9085L173.446 48.2035V64.4336L182.752 66.3813V50.9085Z" fill="#646464"/>
<path d="M163.708 45.3362L151.806 47.7708V64.7042L163.708 62.3779V45.3362Z" fill="#DADADA"/>
<path d="M155.918 129.3C155.106 128.489 154.024 128.002 152.834 128.002C149.912 128.002 147.532 131.194 147.532 135.089C147.532 135.305 147.532 135.522 147.532 135.738L153.645 134.981C153.591 132.871 154.403 130.815 155.918 129.3Z" fill="#1E1E1E"/>
<path d="M143.042 120.644V136.333L147.532 135.738C147.532 135.522 147.532 135.305 147.532 135.089C147.532 131.194 149.913 128.002 152.834 128.002C153.97 128.002 155.106 128.489 155.918 129.3C157.27 130.653 158.028 132.492 158.136 134.386L161.003 134.007L163.708 133.682V118.21L143.042 120.644Z" fill="url(#paint27_linear_15_364)"/>
<path d="M173.446 128.218C172.472 128.218 171.499 128.543 170.687 129.192C172.418 130.599 173.392 132.763 173.338 135.035L178.856 135.792C178.856 135.576 178.91 135.305 178.91 135.035C178.856 131.248 176.422 128.218 173.446 128.218Z" fill="#1E1E1E"/>
<path d="M163.708 118.21V133.682L165.71 133.953L167.982 134.277C168.09 132.276 169.064 130.436 170.633 129.192C171.445 128.597 172.418 128.272 173.392 128.218C176.368 128.218 178.802 131.248 178.802 135.035C178.802 135.305 178.802 135.522 178.748 135.792L183.076 136.387V121.402L163.708 118.21Z" fill="#3D67FE"/>
<path d="M163.708 138.984L131.789 143.204V156.567L163.708 153.591V138.984Z" fill="#FF2B50"/>
<path d="M163.708 138.984V153.591L173.933 154.944V140.553L163.708 138.984Z" fill="#98113D"/>
<path d="M131.789 156.567V172.527L163.708 169.767V153.591L131.789 156.567Z" fill="#FFC600"/>
<path d="M163.708 169.767L173.933 170.525V154.944L163.708 153.591V169.767Z" fill="#FF8C19"/>
<path d="M163.708 185.132V169.767L153.375 170.687V185.457L163.708 185.132Z" fill="url(#paint28_linear_15_364)"/>
<path d="M184.753 185.781V171.39L163.708 169.767V185.132L184.753 185.781Z" fill="#98113D"/>
<path opacity="0.3" d="M191.949 174.474L212.507 191.84V174.095L191.949 174.474Z" fill="black"/>
<path opacity="0.3" d="M152.239 209.315V218.782L174.258 233.931V209.315H152.239Z" fill="black"/>
<path opacity="0.3" d="M173.933 143.583L198.333 166.413L173.933 164.736V143.583Z" fill="black"/>
<path opacity="0.3" d="M205.149 117.344C205.798 116.965 206.448 116.587 207.043 116.262V103.224L198.332 104.414V78.608L192.273 73.6307L189.73 82.5032V105.875L182.697 107.011V108.255L183.076 108.363V150.399H185.402C185.402 150.345 188.053 127.839 205.149 117.344Z" fill="black"/>
<path opacity="0.3" d="M234.418 187.945H233.768V185.457L259.304 218.566V224.571L248.105 224.463L234.418 200.496V187.945Z" fill="black"/>
<path opacity="0.3" d="M210.343 54.1545L222.083 64.4336L230.252 65.8944L222.461 85.5869V81.2048L210.343 54.1545Z" fill="black"/>
<path opacity="0.3" d="M259.845 124.107L260.332 124.918L270.557 143.204L286.462 145.422V137.578L267.743 134.223L274.614 133.195L283.324 124.107L267.743 126.379" fill="black"/>
<path opacity="0.3" d="M242.37 145.422L256.22 155.052L266.77 177.991V159.38V150.453L268.284 150.345V142.555L242.37 145.422Z" fill="black"/>
<path opacity="0.3" d="M276.021 182.968H280.836L285.11 201.903L284.136 206.502L269.962 206.664L276.021 182.968Z" fill="black"/>
<path opacity="0.3" d="M284.136 206.502V210.613L282.838 210.667V213.318L278.834 215.969V228.845C278.834 233.66 274.939 237.609 270.07 237.609C270.016 237.609 270.016 237.609 269.962 237.609L264.984 237.501L265.634 256.923L244.589 256.058L245.021 224.517L259.304 224.571L269.15 223.435H270.827V210.667H269.962V206.664L284.136 206.502Z" fill="black"/>
<path opacity="0.3" d="M256.923 256.545V260.115L283 272.017V257.681L256.923 256.545Z" fill="black"/>
<path opacity="0.3" d="M191.949 283L212.507 294.307L228.791 295.497V272.45L224.625 273.099L213.751 272.396L212.507 272.18V279.213L203.472 280.403L191.949 280.024V283Z" fill="black"/>
<path opacity="0.3" d="M131.843 281.864V283.865L140.283 287.869L144.503 288.248L153.375 293.279V289.059L164.736 290.087V281.864L159.38 282.621L148.831 281.918L142.609 283L131.843 281.864Z" fill="black"/>
<path opacity="0.3" d="M142.609 183.509L154.89 191.191L161.111 209.315H152.239L142.609 183.509Z" fill="black"/>
<path d="M103.765 205.636L107.66 205.528L103.765 205.636Z" fill="#DADADA"/>
<path d="M59.2942 206.393L78.7704 327.254L83.2607 326.497L62.973 206.339L59.2942 206.393Z" fill="#DADADA"/>
<path d="M56.7513 206.448L75.3619 326.821L78.7703 327.254L59.2941 206.393L56.7513 206.448Z" fill="url(#paint29_linear_15_364)"/>
<path d="M107.66 205.528L103.765 205.636L125.567 333.151L130.599 333.8L107.66 205.528Z" fill="url(#paint30_linear_15_364)"/>
<path d="M134.331 333.043L112.908 205.528H107.66L130.599 333.8L134.331 333.043Z" fill="#DADADA"/>
<path d="M66.9764 165.493L63.8927 165.71L0 338.02L2.86733 338.507L66.9764 165.493Z" fill="url(#paint31_linear_15_364)"/>
<path d="M74.5505 167.333L66.9764 165.493L2.86731 338.507L12.389 337.154L74.5505 167.333Z" fill="#DADADA"/>
<path d="M41.0623 242.208L41.2246 240.91L112.475 241.072L112.745 242.316L41.0623 242.208Z" fill="url(#paint32_linear_15_364)"/>
<path d="M28.3486 274.668V275.967L75.903 277.103L76.2817 275.913L28.3486 274.668Z" fill="url(#paint33_linear_15_364)"/>
<path d="M65.0288 163.492L63.8927 165.71L66.9764 165.493L92.1332 163.816C98.3006 163.383 103.657 168.09 104.089 174.258C104.198 175.61 104.035 177.017 103.602 178.315L51.7742 346.297L56.4809 347.055L105.875 178.423C107.931 171.444 103.927 164.141 96.9481 162.085C95.4874 161.652 93.9185 161.49 92.3496 161.598L65.0288 163.492Z" fill="url(#paint34_linear_15_364)"/>
<path d="M92.2955 161.598C99.545 161.111 105.821 166.575 106.308 173.879C106.416 175.448 106.253 176.963 105.821 178.478L56.481 347.109L66.1108 345.486L113.773 180.479C116.1 172.418 111.447 164.033 103.386 161.761C101.709 161.274 99.9237 161.111 98.1925 161.22L92.2955 161.598Z" fill="#DADADA"/>
<path d="M62.9188 310.266L23.4254 306.912H16.0677L62.6483 311.024L62.9188 310.266Z" fill="#E9E9E9"/>
<path d="M16.0677 306.912V308.265L62.2696 312.268L62.6483 311.024L16.0677 306.912Z" fill="#DADADA"/>
<path opacity="0.15" d="M66.9764 165.493L72.116 173.987L74.5505 167.333L66.9764 165.493Z" fill="black"/>
<path opacity="0.15" d="M41.0623 242.208L45.8772 245.67L47.1215 242.262L41.0623 242.208Z" fill="black"/>
<path opacity="0.15" d="M28.3486 275.967L34.7325 276.129L33.2177 280.187L28.3486 275.967Z" fill="black"/>
<path d="M347.704 301.719C347.109 300.582 344.891 297.282 344.079 296.092H341.807V305.181C341.807 305.181 343.322 307.345 344.999 308.211C348.786 308.535 348.462 303.179 347.704 301.719Z" fill="#1E1E1E"/>
<path d="M348.678 301.448L344.837 296.092H344.079C344.891 297.282 347.055 300.582 347.704 301.719C348.461 303.125 348.786 308.535 344.999 308.211C345.54 308.535 346.135 308.589 346.73 308.481C349.003 307.778 349.652 302.801 348.678 301.448Z" fill="#98113D"/>
<path opacity="0.15" d="M16.0677 308.265L21.4778 312.268L22.7762 308.806L16.0677 308.265Z" fill="black"/>
<path opacity="0.15" d="M107.66 205.528L106.524 205.636L104.739 211.803L106.524 221.65L108.58 210.721L107.66 205.528Z" fill="black"/>
<path d="M195.411 348.407C191.84 348.461 189.839 347.163 188.973 346.46C188.973 347.271 188.973 347.812 188.973 347.92C188.973 348.245 191.462 350.734 198.062 349.868C200.713 349.543 203.688 349.219 206.285 349.002L206.123 347.217C202.661 347.866 199.036 348.245 195.411 348.407Z" fill="#A4A4A4"/>
<path d="M211.587 340.779L200.983 338.94L190.055 338.669C190.055 338.669 189.081 338.994 189.027 339.481C188.973 339.859 189.027 344.187 189.027 346.514C189.839 347.217 191.894 348.515 195.465 348.461C199.09 348.299 202.66 347.92 206.231 347.271L206.393 349.056C210.289 348.732 213.372 348.515 213.372 348.515L211.587 340.779Z" fill="#1E1E1E"/>
<path d="M190.055 335.207V339.264C190.055 339.264 191.732 341.266 196.872 341.266C201.308 341.266 200.983 338.94 200.983 338.94V334.612L190.055 335.207Z" fill="#D0D0D0"/>
<path d="M225.653 348.029C226.519 347.866 226.843 346.947 226.952 346.135C226.952 344.728 225.924 343.538 224.571 343.268L213.426 341.104L202.498 340.833C202.498 340.833 201.524 341.158 201.47 341.645C201.416 342.023 201.47 346.46 201.47 348.786C202.119 349.327 204.121 350.68 207.584 350.734C211.912 350.734 223.976 348.353 225.653 348.029Z" fill="#1E1E1E"/>
<path d="M225.653 348.029C224.03 348.407 211.912 350.734 207.584 350.625C204.121 350.571 202.174 349.219 201.47 348.678C201.47 349.435 201.47 349.922 201.47 350.03C201.47 350.355 203.959 352.844 210.559 351.978C215.266 351.383 221 350.193 223.868 349.598C225.058 349.327 226.032 348.57 226.573 347.488C226.789 347.055 226.897 346.568 226.897 346.135C226.843 346.892 226.519 347.812 225.653 348.029Z" fill="#A4A4A4"/>
<path d="M202.444 335.64V341.32C202.444 341.32 203.905 343.322 208.557 343.322C212.669 343.322 212.669 340.887 212.669 340.022V335.153L202.444 335.64Z" fill="#D0D0D0"/>
<path d="M210.235 169.551C210.83 170.579 212.182 171.553 212.94 172.094C213.697 172.635 212.831 173.717 211.858 173.23C210.884 172.743 210.235 169.551 210.235 169.551Z" fill="#843C32"/>
<path opacity="0.3" d="M209.964 169.551C210.559 170.579 212.182 171.553 212.94 172.094C213.697 172.635 212.561 173.717 211.587 173.23" fill="black"/>
<path d="M218.782 194.924C218.782 194.924 229.17 180.155 230.252 178.694C231.334 177.233 234.959 173.987 237.231 174.095C239.503 174.204 239.936 175.556 238.529 175.718C237.123 175.881 236.203 176.097 236.203 176.097L233.714 183.13V187.458L223.219 218.512C222.624 220.135 220.892 220.946 219.269 220.351C219.107 220.297 218.999 220.243 218.837 220.189L207.205 213.805L218.782 194.924Z" fill="#843C32"/>
<path d="M197.196 189.027V180.966L194.059 169.172L205.798 163.979L207.205 164.52C207.205 164.52 212.777 173.717 213.968 176.043C215.158 178.369 215.374 183.238 209.369 184.05V190.434L197.196 189.027Z" fill="#843C32"/>
<path opacity="0.3" d="M207.746 178.802C207.746 178.802 209.423 181.507 209.423 184.05C213.318 183.509 214.563 181.291 214.671 179.127C214.346 181.778 207.746 178.802 207.746 178.802Z" fill="black"/>
<path d="M190.758 176.151L194.545 182.373C195.465 183.942 197.413 184.537 199.09 183.779L202.66 182.156C203.58 181.724 204.067 180.696 203.797 179.722L201.254 170.958L203.58 171.823C203.58 171.823 205.582 172.256 206.177 171.661C206.772 171.066 203.959 168.144 203.959 168.144C203.959 168.144 208.449 166.521 208.666 166.846L209.261 167.82C209.261 167.82 210.667 165.331 208.503 163.708C208.503 163.708 212.453 161.057 208.233 159.651C204.013 158.244 197.359 157.541 191.029 163.113C185.132 168.469 190.217 175.34 190.758 176.151Z" fill="#1E1E1E"/>
<path d="M185.997 246.752C185.997 246.752 185.565 306.75 188.54 334.503C188.54 334.503 190.542 339.643 201.037 336.667L203.364 334.612L202.606 248.051L185.997 246.752Z" fill="#FF2B50"/>
<path opacity="0.1" d="M194.113 259.574C193.031 260.494 191.678 261.143 190.271 261.468C190.055 261.522 192.868 263.037 192.868 263.307C192.868 263.578 192.868 263.794 192.868 264.01C193.085 280.078 193.842 326.821 195.303 337.587C195.303 337.587 201.254 337.479 202.498 335.64C203.905 333.584 209.315 250.107 194.113 259.574Z" fill="black"/>
<path d="M190.271 261.468L197.359 263.632C197.359 263.632 198.819 324.495 200.659 336.667C200.659 336.667 202.498 338.94 208.99 338.94C213.859 338.94 214.725 336.126 214.725 336.126C214.725 336.126 218.187 281.81 218.187 268.176V246.266H194.329" fill="#FF2B50"/>
<path opacity="0.3" d="M185.998 246.752V247.185C185.998 247.185 198.603 255.787 218.133 252.487V246.32L185.943 246.374L185.998 246.752Z" fill="black"/>
<path d="M205.366 172.851C205.366 172.851 202.174 169.226 200.388 170.254C198.603 171.282 200.767 174.745 203.093 175.827C205.42 176.909 205.798 174.961 205.798 174.961" fill="#843C32"/>
<path d="M196.547 191.299V189.352C196.547 189.081 196.655 188.811 196.872 188.594C198.819 187.025 201.2 186.106 203.742 186.106C205.744 185.998 207.8 186.16 209.802 186.593C210.235 186.701 210.559 187.08 210.559 187.566V190.38L196.547 191.299Z" fill="#FF2B50"/>
<path d="M268.771 202.174L267.96 202.336L268.988 200.551C269.204 200.334 269.15 199.955 268.934 199.793C268.717 199.577 268.339 199.631 268.176 199.847L265.688 201.903C265.688 201.903 266.337 200.496 266.824 199.685C267.311 198.873 266.607 198.224 266.012 198.657C265.417 199.09 261.143 203.201 261.143 203.201C261.143 203.201 261.197 201.146 260.764 201.037C260.007 200.875 259.196 202.552 258.817 203.688C258.438 204.824 257.194 208.071 257.194 208.071L245.075 214.346C245.075 214.346 239.828 209.044 233.39 203.31C235.445 205.149 231.983 214.779 228.142 218.999L241.613 225.383C244.318 226.681 247.564 226.14 249.728 224.084C254.867 219.215 263.74 210.667 265.309 209.315C267.527 207.367 269.15 203.093 269.15 203.093V202.552C269.15 202.336 269.042 202.174 268.825 202.174H268.771Z" fill="#843C32"/>
<path d="M234.093 202.444C227.006 196.06 218.404 189.135 213.859 188.108C205.203 186.16 194.329 186.322 189.244 200.497C184.158 214.671 185.24 246.861 185.24 246.861C207.367 253.623 221.109 246.861 221.109 246.861L221.163 216.023L227.493 219.269L228.845 218.079C232.686 213.913 236.149 204.284 234.093 202.444Z" fill="#DADADA"/>
<path d="M246.374 215.969C246.32 215.969 246.211 215.915 246.157 215.861L244.859 214.509C244.751 214.4 244.751 214.238 244.859 214.13C244.967 214.022 245.129 214.022 245.238 214.13L246.536 215.482C246.644 215.591 246.644 215.753 246.536 215.861C246.536 215.969 246.428 215.969 246.374 215.969Z" fill="#1E1E1E"/>
<path opacity="0.3" d="M221.217 216.023L216.727 213.643L221.163 221.433L221.217 216.023Z" fill="black"/>
<path d="M221.163 216.294C221.109 216.294 221.055 216.294 221.055 216.24L216.564 213.805C216.456 213.751 216.402 213.589 216.456 213.426C216.51 213.264 216.673 213.264 216.835 213.318L221.325 215.753C221.433 215.807 221.488 215.969 221.433 216.131C221.379 216.24 221.271 216.294 221.163 216.294Z" fill="#1E1E1E"/>
<path d="M263.902 204.446C263.848 204.446 263.794 204.446 263.74 204.392C263.632 204.283 263.578 204.121 263.686 204.013L265.417 201.741C265.525 201.633 265.688 201.578 265.796 201.687C265.904 201.795 265.958 201.957 265.85 202.065L264.119 204.338C264.065 204.392 264.011 204.446 263.902 204.446Z" fill="#1E1E1E"/>
<path d="M265.309 205.69C265.255 205.69 265.201 205.69 265.147 205.636C265.038 205.528 265.038 205.365 265.092 205.257L267.743 202.174C267.852 202.065 268.014 202.065 268.122 202.119C268.23 202.228 268.23 202.39 268.176 202.498L265.525 205.582C265.471 205.69 265.363 205.69 265.309 205.69Z" fill="#1E1E1E"/>
<path d="M131.627 47.933C131.627 47.933 133.791 42.1983 133.899 41.0622C134.007 39.9261 134.494 39.2769 134.819 39.2769C135.468 39.2769 135.738 40.2507 135.955 42.2524C136.225 44.6329 133.682 47.7707 133.682 47.7707L131.627 47.933Z" fill="#E57917"/>
<path opacity="0.3" d="M146.18 42.9557L146.396 44.146C145.963 44.9575 145.26 45.6067 144.448 46.0395C143.799 46.3641 141.527 54.0464 141.256 58.0498L138.389 58.5908L136.82 48.6363L144.07 43.9296L146.18 42.9557Z" fill="black"/>
<path d="M127.623 55.5611C127.623 55.5611 130.49 50.4216 131.356 48.5281C132.222 46.6345 134.169 42.7393 135.197 42.0901C136.225 41.4409 141.365 40.2507 143.042 40.1425C144.719 40.0343 147.965 40.3048 148.073 40.8999C148.181 41.495 147.37 41.8196 146.775 41.8737C146.775 41.8737 147.316 42.577 145.801 43.1721C145.801 43.1721 146.45 44.5787 144.34 45.2279C142.284 45.8771 140.553 47.2838 139.417 49.0691C138.551 50.5839 135.197 57.9957 135.197 57.9957L127.623 55.5611Z" fill="#FF8538"/>
<path d="M80.7179 126.108L71.9537 134.981L75.7948 148.56L71.4668 155.16C71.4668 155.16 63.514 144.557 60.5384 136.279C59.9974 134.71 60.2679 133.033 61.2417 131.735C65.137 126.703 75.5784 113.341 79.9064 107.985C85.3706 101.276 80.7179 126.108 80.7179 126.108Z" fill="url(#paint35_linear_15_364)"/>
<g opacity="0.3">
<path opacity="0.3" d="M79.9605 107.985C78.7703 109.499 77.0391 111.609 75.1456 113.99L74.9833 115.667C74.4964 120.103 74.7127 124.539 75.5784 128.922L75.9571 130.923L80.7179 126.054C80.7179 126.054 85.3706 101.276 79.9605 107.985Z" fill="black"/>
</g>
<path d="M128.218 54.4791V53.9381C128.218 53.9381 129.246 51.5036 130.003 50.9626C130.761 50.4216 133.249 49.9888 135.576 51.4495C138.227 53.0725 137.415 54.6414 136.387 56.4808C135.359 58.3203 128.218 54.4791 128.218 54.4791Z" fill="#98113D"/>
<path d="M76.3358 140.391C78.8785 135.522 80.3933 124.702 83.2607 115.234C83.2607 115.234 97.8137 110.311 102.575 101.655C107.335 92.9987 125.784 57.076 128.218 53.5053C130.382 50.3675 138.443 52.0446 136.496 56.5891C134.548 61.1335 120.157 90.2396 115.072 104.035C109.986 117.831 106.145 138.605 104.089 146.937C102.034 155.268 77.5801 143.799 77.5801 143.799L76.3358 140.391Z" fill="url(#paint36_linear_15_364)"/>
<path d="M102.953 100.951C102.953 100.951 115.775 128.326 95.9202 132.925C82.5573 136.009 80.8261 125.838 81.1507 118.805C81.1507 118.805 77.9588 114.423 78.8244 109.932C79.69 105.442 85.1542 99.1662 83.6394 94.8922C82.1245 90.6183 80.4474 83.5311 85.9116 78.8244C88.9953 76.0652 93.3233 75.1455 97.2727 76.3898C97.2727 76.3898 102.034 73.4684 104.468 78.067C106.903 82.6655 103.981 84.6131 103.981 84.6131L104.63 89.374C104.847 90.997 105.766 92.4036 107.065 93.3233L102.953 100.951Z" fill="#1E1E1E"/>
<path d="M104.035 91.7003C103.17 91.3757 102.358 90.8347 101.763 90.1855C99.8696 89.9691 97.4892 86.6149 99.1663 85.587C100.843 84.5591 103.116 88.5625 103.116 88.5625C104.252 87.9674 103.819 87.3182 103.44 86.8313C103.062 86.3444 99.9237 82.9361 101.601 81.5835C103.278 80.231 105.117 83.0984 105.117 83.0984C105.334 83.6394 106.145 86.2903 106.145 86.2903C107.119 88.0215 107.66 89.9691 107.822 91.9167L106.957 93.5398L105.983 92.7282C105.334 92.2413 104.685 91.9167 104.035 91.7003Z" fill="#FF8538"/>
<path d="M77.7965 154.295C78.6621 157.324 82.3409 161.165 82.3409 161.165L77.9047 188.27C77.9047 188.27 69.6273 226.519 69.5191 227.222C69.4109 227.925 72.0618 229.007 76.2817 229.548C78.3375 229.819 80.3933 229.981 82.4491 229.927C82.936 229.927 83.3688 229.603 83.477 229.116C84.7214 224.896 90.8888 203.905 95.325 187.999C100.248 170.254 104.198 148.614 104.089 146.937C103.981 145.26 99.3826 141.148 91.4839 139.471C83.5852 137.794 76.3358 140.337 76.3358 140.337C74.4964 142.609 72.9274 145.098 71.6831 147.749C69.3027 153.213 67.7879 160.083 65.678 164.79C62.1073 172.797 59.0777 182.427 59.0777 182.427C59.0777 182.427 39.9261 198.116 36.6801 201.038C36.3555 201.308 36.1391 201.687 36.085 202.065C35.5981 204.338 35.6522 206.718 36.1932 208.99C37.1129 212.236 39.7638 214.779 41.2245 214.4C42.6852 214.022 68.2207 194.491 71.7372 191.949C75.2538 189.406 91.7003 155.16 91.7003 155.16" fill="#1E1E1E"/>
<path opacity="0.3" d="M41.1769 213.627C42.6875 213.263 43.2542 210.236 42.4428 206.867C41.6315 203.497 39.7492 201.06 38.2387 201.424C36.7282 201.788 36.1614 204.814 36.9728 208.184C37.7842 211.554 39.6664 213.99 41.1769 213.627Z" fill="#3D67FE"/>
<path d="M42.4147 206.88C42.0901 205.257 41.3327 203.688 40.3048 202.39L36.6801 204.446L33.2717 206.393L35.2734 215.428L39.4392 212.94L42.7934 210.938C42.8475 209.585 42.7393 208.179 42.4147 206.88Z" fill="#F5F5F5"/>
<g opacity="0.3">
<path opacity="0.3" d="M42.4148 206.88C42.0902 205.257 41.3328 203.688 40.3049 202.39L37.4917 204.013C38.6819 204.608 41.8738 206.772 41.3869 211.804L42.7394 210.992C42.8476 209.585 42.7394 208.179 42.4148 206.88Z" fill="black"/>
</g>
<path d="M30.7291 217.159C31.757 214.184 32.4603 208.341 30.5127 207.53C29.3766 207.043 28.0782 207.259 27.1585 208.071C26.6716 208.557 26.6716 209.207 26.4552 209.964C25.6977 213.426 24.1829 220.243 23.155 223.597C22.1812 226.789 21.8025 230.306 23.4796 231.767L23.6419 231.929H23.696C26.8339 233.66 29.7553 220.027 30.7291 217.159Z" fill="#1E1E1E"/>
<path d="M39.1148 208.612C38.7902 204.283 35.3819 203.634 33.6506 204.338C32.3522 204.879 29.2685 206.123 27.7537 207.259C28.457 206.826 31.162 205.474 32.5686 207.53C33.9752 209.585 33.0014 214.292 32.5686 215.915C32.1358 217.538 30.2964 223.435 29.6472 225.274C28.998 227.114 27.5373 232.632 24.8864 232.308C25.1028 232.362 25.3192 232.362 25.5897 232.416C29.4308 232.524 31.703 225.166 35.0573 220.297C38.4115 215.428 39.3853 212.94 39.1148 208.612Z" fill="#FF2B50"/>
<path d="M29.593 225.275C30.2963 223.381 32.1357 217.484 32.5685 215.861C33.0013 214.238 33.9751 209.585 32.5685 207.475C31.1619 205.366 28.4569 206.772 27.7536 207.205C27.2667 207.584 26.888 207.908 26.8338 208.179C26.7797 208.449 26.6174 209.153 26.4551 209.91C26.6715 209.098 26.6715 208.449 27.1585 208.016C28.0782 207.205 29.3766 206.989 30.5127 207.475C32.4603 208.287 31.757 214.13 30.7291 217.105C29.7012 220.027 26.8339 233.66 23.7501 231.929C24.0747 232.145 24.3993 232.253 24.778 232.308C27.4831 232.632 28.8897 227.114 29.593 225.275Z" fill="#98113D"/>
<path opacity="0.3" d="M82.7197 229.224C82.6656 229.711 79.7983 229.657 76.3899 229.17C72.9816 228.683 70.0602 227.817 70.1143 227.33C70.1684 226.843 73.198 227.006 76.6063 227.493C80.0147 227.98 82.7738 228.737 82.7197 229.224Z" fill="#3D67FE"/>
<path d="M76.6063 227.493C75.1997 227.276 73.9013 227.168 72.8192 227.114L72.4946 228.412L71.629 232.145L80.772 232.362L81.4212 229.548L81.6376 228.575C80.0146 228.034 78.3375 227.709 76.6063 227.493Z" fill="#F5F5F5"/>
<g opacity="0.3">
<path opacity="0.3" d="M76.6063 227.493C75.1997 227.276 73.9013 227.168 72.8193 227.114L72.4947 228.412L72.3324 229.116C75.362 228.845 78.4458 228.845 81.4754 229.224L81.6377 228.575C80.0147 228.034 78.3376 227.709 76.6063 227.493Z" fill="black"/>
</g>
<path d="M93.3233 239.287C92.7823 238.259 91.9708 237.393 90.9429 236.906C89.2117 235.987 82.7196 230.739 82.395 230.576C82.0704 230.414 79.5818 230.414 77.6341 230.414C75.6865 230.414 70.8175 230.252 70.6011 230.739C70.4388 231.117 69.6273 236.636 69.1945 239.287C72.0077 239.287 85.3164 239.287 93.3233 239.287Z" fill="#FF2B50"/>
<path d="M69.1945 239.287C69.1404 239.611 69.0863 239.882 69.0863 240.098C69.0322 240.423 69.2486 240.693 69.5732 240.747H69.6273H93.0528C93.3774 240.747 93.5938 240.531 93.5938 240.206C93.5397 239.882 93.4856 239.611 93.3233 239.287C85.3164 239.287 72.0077 239.287 69.1945 239.287Z" fill="#98113D"/>
<path d="M79.0949 181.128C79.0408 181.128 79.0408 181.128 79.0949 181.128C78.8785 181.074 78.8244 180.966 78.8244 180.804L82.0704 161.219C81.4753 160.57 78.3916 157.162 77.5801 154.295C77.526 154.132 77.6342 154.024 77.7424 153.97C77.9047 153.916 78.0129 154.024 78.067 154.132C78.9326 157.108 82.5032 160.895 82.5573 160.895L82.6655 161.003L79.4195 180.858C79.3113 181.074 79.2031 181.128 79.0949 181.128Z" fill="#3659D7"/>
<path d="M139.687 44.4165C139.579 44.4165 139.471 44.3624 139.417 44.2542C139.363 44.0919 139.471 43.9837 139.579 43.9296C141.473 43.2804 143.475 42.8476 145.422 42.6312C145.693 42.6312 145.963 42.7935 146.017 43.064C146.071 43.2263 145.963 43.3345 145.801 43.3886C145.639 43.4427 145.53 43.3345 145.476 43.1722C143.529 43.3886 141.581 43.7673 139.742 44.4165H139.687Z" fill="#1E1E1E"/>
<path d="M139.579 42.6312C139.471 42.6312 139.363 42.523 139.309 42.4148C139.255 42.2525 139.363 42.1443 139.525 42.0902C139.579 42.0902 143.312 41.2787 146.18 41.0082C146.558 41.0082 146.883 41.1705 146.991 41.5492C147.045 41.7115 146.991 41.8197 146.829 41.8738C146.667 41.9279 146.558 41.8738 146.504 41.7115C146.45 41.6033 146.342 41.5492 146.234 41.5492C143.421 41.8197 139.688 42.6312 139.633 42.6312H139.579Z" fill="#1E1E1E"/>
<path d="M320.762 282.08L320.329 285.434L307.129 303.45C305.127 306.209 305.343 309.996 307.616 312.485C309.401 314.432 312.106 315.19 314.649 314.54L343.538 306.912L335.964 282.08H320.762Z" fill="#646464"/>
<path opacity="0.3" d="M333.259 297.715C333.151 297.715 333.151 297.661 320.491 306.588L335.423 303.125L333.259 297.715Z" fill="black"/>
<path d="M347.92 308.048C347.163 306.912 346.46 305.668 345.811 304.424C345.053 302.692 338.453 308.643 338.453 308.643L339.21 312.268L338.832 313.945C340.346 312.755 345.378 313.242 346.568 316.867C347.217 316.055 347.65 314.811 347.704 312.863C347.866 308.968 348.299 308.589 347.92 308.048Z" fill="#1E1E1E"/>
<path d="M338.832 313.999C337.804 314.973 337.155 316.326 337.1 317.732C337.209 318.814 340.617 319.139 343.376 318.544C344.783 318.219 345.865 317.84 346.622 316.921C345.378 313.35 340.347 312.809 338.832 313.999Z" fill="#D0D0D0"/>
<path d="M347.921 308.048C348.245 308.589 347.866 308.968 347.704 312.971C347.542 316.975 346.081 317.949 343.376 318.544C340.671 319.139 337.209 318.814 337.1 317.732C337.1 318.111 337.1 318.435 337.155 318.814C337.155 318.814 337.425 320.654 341.861 320.437C346.298 320.221 347.434 318.381 348.083 316.542C348.732 314.703 348.624 310.266 348.678 309.617C348.57 309.076 348.299 308.535 347.921 308.048Z" fill="#FF2B50"/>
<path d="M349.597 279.646C350.571 278.834 350.084 276.129 348.678 273.532C347.271 270.935 343.917 256.977 343.051 252.703C342.186 248.429 338.074 243.939 328.715 244.48C319.355 245.021 316.272 247.077 309.779 251.676C303.287 256.274 299.933 258.871 299.933 258.871V269.637C299.933 269.637 315.676 260.223 318.003 258.763C318.003 258.763 319.193 264.93 319.68 270.232C320.167 275.534 320.437 278.185 320.762 282.08H349.111L349.597 279.646Z" fill="url(#paint37_linear_15_364)"/>
<path d="M318.057 259.033C317.949 259.033 317.841 258.925 317.786 258.817C317.408 257.248 316.867 255.679 316.163 254.164C316.109 254.002 316.163 253.894 316.326 253.785C316.488 253.731 316.596 253.785 316.704 253.948C317.408 255.463 317.949 257.086 318.327 258.709C318.382 258.871 318.273 258.979 318.111 259.033H318.057Z" fill="#1E1E1E"/>
<path opacity="0.3" d="M340.833 259.845L327.957 282.08H320.762L320.329 277.103L340.833 259.845Z" fill="black"/>
<path d="M333.259 251.405C328.931 257.789 323.413 263.307 316.975 267.581C307.886 273.586 301.881 277.914 300.42 278.996C300.204 279.159 300.041 279.429 299.987 279.7C299.771 281.485 300.041 283.27 300.69 284.947C301.881 287.923 302.855 288.626 304.045 288.193C305.235 287.761 318.435 279.97 325.09 274.993C331.744 270.016 341.699 258.925 341.699 258.925" fill="url(#paint38_linear_15_364)"/>
<path d="M303.455 287.701C304.201 287.484 304.264 285.448 303.597 283.152C302.929 280.857 301.783 279.173 301.037 279.389C300.291 279.606 300.228 281.643 300.895 283.938C301.563 286.233 302.709 287.918 303.455 287.701Z" fill="#1E1E1E"/>
<path d="M303.612 283.162C302.963 280.89 301.827 279.213 301.069 279.375H301.015C300.961 279.375 300.907 279.429 300.853 279.483L297.986 280.944L294.036 280.565C293.82 280.565 293.658 280.673 293.549 280.836C293.441 281.052 293.549 281.377 293.766 281.485L295.335 282.296C295.443 282.35 295.497 282.513 295.443 282.621C295.389 282.675 295.335 282.729 295.281 282.729L288.843 284.244C288.572 284.298 288.41 284.569 288.464 284.839C288.518 285.11 288.734 285.272 289.005 285.272L294.577 284.623C294.577 284.623 294.631 284.623 294.631 284.677V284.731L289.762 287.544C289.492 287.706 289.384 288.031 289.546 288.247C289.546 288.302 289.6 288.356 289.6 288.356C289.762 288.572 289.979 288.626 290.195 288.518L295.335 286.841C295.335 286.841 295.389 286.841 295.389 286.895V286.949L292.089 289.816C291.872 290.033 291.872 290.357 292.035 290.574L292.089 290.628C292.251 290.736 292.522 290.79 292.684 290.682L296.417 288.41H296.471V288.464L295.118 291.385C295.01 291.656 295.118 291.926 295.389 292.034H295.443C295.659 292.089 295.822 292.034 295.984 291.926L300.366 287.328L301.773 286.516L303.883 285.218C303.937 284.46 303.829 283.757 303.612 283.162Z" fill="#FF8538"/>
<g opacity="0.1">
<path opacity="0.1" d="M303.612 283.162C302.963 280.89 301.827 279.213 301.069 279.375H301.015C300.961 279.375 300.907 279.429 300.853 279.483L300.745 279.537C301.286 280.024 302.746 281.864 302.746 285.921L303.991 285.164C303.937 284.46 303.828 283.757 303.612 283.162Z" fill="black"/>
</g>
<path d="M322.547 246.32C321.357 247.077 320.654 249.025 321.79 249.944C322.926 250.864 326.551 251.621 330.446 248.862C335.207 245.4 332.069 242.262 329.039 244.156C327.038 245.346 324.819 246.049 322.547 246.32Z" fill="#FF2B50"/>
<path d="M331.203 244.156L330.825 239.341L330.608 236.96L322.277 240.152L322.493 246.049L322.547 247.239C322.655 249.998 326.821 248.754 329.364 247.239C330.825 246.482 331.312 245.508 331.203 244.156Z" fill="#FF8538"/>
<path opacity="0.3" d="M330.013 238.204L330.662 237.014L322.331 240.206L322.547 246.103C324.224 245.833 329.959 245.346 330.013 238.204Z" fill="black"/>
<path d="M319.247 266.283C319.139 266.283 319.085 266.229 319.031 266.174C318.922 266.066 318.977 265.904 319.085 265.796C324.549 261.792 329.256 256.869 333.043 251.243C333.151 251.135 333.313 251.08 333.421 251.189C333.53 251.297 333.584 251.459 333.476 251.567C329.634 257.248 324.928 262.171 319.409 266.229C319.355 266.283 319.301 266.283 319.247 266.283Z" fill="#1E1E1E"/>
<path d="M349.598 279.646C349.598 279.646 347.596 280.89 345.486 280.241C343.376 279.591 328.228 273.64 323.954 282.08C319.734 290.412 328.985 297.445 337.1 309.563C337.371 309.996 337.858 310.212 338.345 310.104C338.94 309.996 339.589 309.834 340.292 309.725C343.647 309.076 345.27 306.804 346.135 305.506C346.514 305.019 346.514 304.315 346.243 303.774L343.051 297.391C343.051 297.391 350.625 297.066 352.627 291.872C354.629 286.679 349.598 279.646 349.598 279.646Z" fill="#C0C0C0"/>
<g opacity="0.3">
<path opacity="0.3" d="M336.884 284.028L343.105 297.336C343.538 297.336 349.435 296.904 351.978 293.063C349.057 296.633 338.561 287.544 336.884 284.028Z" fill="black"/>
</g>
<path d="M328.714 233.065L328.661 233.119L328.714 233.065Z" fill="#FF2B50"/>
<path d="M321.087 239.07C321.898 238.962 321.79 238.042 321.79 238.042L324.441 237.664C326.497 237.393 326.01 236.041 325.739 234.418C325.523 233.119 325.144 231.009 324.982 230.144C323.251 231.442 320.816 231.117 319.518 229.386C319.518 229.386 319.464 229.332 319.464 229.278C319.355 230.252 318.706 231.063 317.787 231.442C317.624 231.496 317.408 231.55 317.191 231.604C317.678 233.877 318.273 236.582 318.544 238.313L320.167 238.096C320.167 238.096 320.275 239.178 321.087 239.07Z" fill="#FF8538"/>
<path d="M331.528 233.281C331.095 231.28 329.58 231.658 328.715 233.065L328.661 233.119C328.931 234.796 329.202 238.313 329.959 238.205C329.959 238.205 331.636 237.609 331.636 234.418C331.636 234.039 331.636 233.66 331.528 233.281Z" fill="#FF8538"/>
<path d="M332.826 227.276C332.61 225.87 331.474 224.734 330.067 224.517C330.067 224.247 330.067 223.922 330.013 223.651C329.689 221.379 327.579 219.864 325.361 220.189C324.603 220.297 323.9 220.622 323.359 221.109C321.682 219.756 319.247 220.027 317.895 221.704C317.732 221.92 317.57 222.137 317.462 222.407C316.218 222.678 315.352 223.868 315.568 225.166C314.108 225.545 313.188 226.952 313.404 228.466C313.513 229.062 313.729 229.603 314.162 230.035C314.054 230.36 314.054 230.685 314.108 231.063C314.27 232.362 315.46 233.281 316.705 233.119C316.975 233.065 317.246 233.011 317.516 232.849L317.3 231.767C317.516 231.712 317.678 231.658 317.895 231.604C318.814 231.226 319.41 230.414 319.572 229.44C320.816 231.171 323.251 231.604 325.036 230.36C325.09 230.36 325.09 230.306 325.144 230.306C325.306 231.117 325.685 233.281 325.902 234.58C326.172 236.203 326.605 237.501 324.603 237.826L321.952 238.205C321.952 238.205 322.06 239.07 321.249 239.232C320.437 239.395 320.329 238.313 320.329 238.313L318.706 238.529C318.76 238.854 318.814 239.124 318.869 239.395C319.193 241.667 319.355 245.941 324.765 244.697C327.795 244.047 330.067 241.451 330.176 238.367C329.418 238.475 329.148 234.959 328.877 233.281V233.173L328.931 233.227C329.797 231.875 331.312 231.496 331.744 233.444C332.718 233.011 333.151 231.875 332.772 230.901C332.664 230.576 332.448 230.306 332.177 230.144C332.664 229.224 332.935 228.25 332.826 227.276Z" fill="#FFC402"/>
<path opacity="0.5" d="M317.732 234.255C318.706 234.093 319.626 234.796 319.788 235.77C319.95 236.744 319.247 237.663 318.273 237.826C317.299 237.988 316.38 237.285 316.217 236.311C316.055 235.337 316.758 234.363 317.732 234.255Z" fill="url(#paint39_linear_15_364)"/>
<path opacity="0.5" d="M322.601 233.552C323.575 233.39 324.495 234.093 324.657 235.067C324.819 236.04 324.116 236.96 323.142 237.122C322.169 237.285 321.249 236.581 321.087 235.608C320.924 234.58 321.628 233.66 322.601 233.552Z" fill="url(#paint40_linear_15_364)"/>
<path d="M318.003 238.096C316.975 238.096 316.109 237.339 315.947 236.311C315.893 235.77 316.001 235.229 316.326 234.742C316.65 234.309 317.137 233.985 317.678 233.931C318.814 233.768 319.896 234.58 320.059 235.662C320.113 236.203 320.005 236.744 319.68 237.231C319.355 237.664 318.868 237.988 318.327 238.042C318.219 238.096 318.111 238.096 318.003 238.096ZM317.786 234.526C317.354 234.58 317.029 234.796 316.759 235.121C316.488 235.445 316.434 235.878 316.488 236.257C316.596 237.123 317.408 237.664 318.219 237.555C318.652 237.501 318.977 237.285 319.247 236.96C319.518 236.636 319.572 236.203 319.518 235.824C319.409 234.958 318.598 234.363 317.786 234.526Z" fill="#1E1E1E"/>
<path d="M322.872 237.393C322.439 237.393 322.006 237.231 321.628 236.96C321.195 236.636 320.87 236.149 320.816 235.608C320.762 235.067 320.87 234.526 321.195 234.039C321.519 233.606 322.006 233.281 322.547 233.227C323.683 233.065 324.765 233.876 324.928 235.013C324.982 235.554 324.874 236.095 324.549 236.581C324.224 237.068 323.738 237.339 323.197 237.393C323.088 237.393 322.98 237.393 322.872 237.393ZM322.656 233.822C322.223 233.876 321.898 234.093 321.628 234.417C321.357 234.742 321.303 235.175 321.357 235.554C321.411 235.986 321.628 236.311 321.952 236.581C322.277 236.852 322.71 236.906 323.088 236.852C323.521 236.798 323.846 236.581 324.116 236.257C324.387 235.932 324.441 235.499 324.387 235.121C324.279 234.255 323.467 233.66 322.656 233.822Z" fill="#1E1E1E"/>
<path d="M319.788 236.04C319.68 236.04 319.518 235.932 319.518 235.824C319.518 235.662 319.572 235.554 319.734 235.499L320.978 235.283C321.141 235.283 321.249 235.337 321.303 235.499C321.303 235.662 321.249 235.77 321.087 235.824L319.788 236.04C319.842 236.04 319.788 236.04 319.788 236.04Z" fill="#1E1E1E"/>
<path d="M324.657 235.337C324.549 235.337 324.495 235.283 324.441 235.229C324.333 235.121 324.387 234.959 324.495 234.85L325.739 233.985C325.847 233.876 326.01 233.931 326.118 234.039C326.226 234.147 326.172 234.309 326.064 234.417L324.82 235.283C324.765 235.337 324.711 235.337 324.657 235.337Z" fill="#1E1E1E"/>
<path d="M326.28 234.147C326.172 234.147 326.118 234.093 326.064 234.039C325.956 233.931 326.01 233.768 326.118 233.66L328.282 232.145C328.39 232.037 328.552 232.091 328.661 232.199C328.769 232.308 328.715 232.47 328.607 232.578L326.443 234.093C326.388 234.147 326.334 234.147 326.28 234.147Z" fill="#FF8538"/>
<g opacity="0.3">
<path opacity="0.3" d="M317.732 232.253C317.949 232.199 318.111 232.145 318.327 232.091C319.247 231.712 319.842 230.901 319.95 229.981C319.734 229.765 319.572 229.603 319.409 229.332C319.301 230.306 318.652 231.117 317.732 231.496C317.57 231.55 317.354 231.604 317.137 231.658C317.191 231.875 317.245 232.037 317.245 232.253C317.462 232.253 317.624 232.308 317.732 232.253Z" fill="black"/>
<path opacity="0.3" d="M323.737 231.496C324.224 231.442 324.657 231.28 325.09 231.009C325.036 230.684 324.982 230.36 324.928 230.143C323.521 231.225 321.519 231.171 320.113 230.089C321.032 231.171 322.385 231.712 323.737 231.496Z" fill="black"/>
</g>
<path d="M356.252 257.302L353.98 253.569L353.06 252.108C351.437 249.403 349.381 246.915 347.055 244.751L341.915 240.044L376.918 233.173L382.058 237.88C384.384 240.044 386.44 242.533 388.063 245.238L388.983 246.698L391.255 250.431L398.45 264.66L362.203 274.073L356.252 257.302Z" fill="#E3E3E3"/>
<path d="M371.454 263.037L367.505 264.01L363.123 253.569L367.072 252.541L371.454 263.037Z" fill="#FF2B50"/>
<path d="M384.601 259.682L380.651 260.71L376.269 250.215L380.218 249.241L384.601 259.682Z" fill="#FF2B50"/>
<path d="M362.041 253.84L381.95 248.808L380.435 247.834C376.161 245.021 371.725 242.641 367.018 240.639L363.501 239.124C363.88 244.21 363.772 246.807 362.852 251.189L362.041 253.84Z" fill="#FFC402"/>
<path d="M367.072 252.541L371.454 262.983L373.726 262.387L372.374 259.141C371.725 257.518 372.212 256.004 373.456 255.679C374.7 255.354 376.323 256.382 376.972 258.005L378.325 261.251L380.597 260.656L376.215 250.215L367.072 252.541Z" fill="#3DE7FE"/>
<path opacity="0.15" d="M388.658 251.026L392.499 255.517L391.904 251.135L388.658 251.026Z" fill="black"/>
<path opacity="0.15" d="M360.093 253.136L363.555 258.222L368.262 262.117H361.229L360.093 253.136Z" fill="black"/>
<path d="M374.322 387.089L367.18 387.738C364.313 387.035 359.823 385.737 356.685 386.602C353.114 387.576 354.358 390.173 354.358 390.173C354.358 390.173 355.765 393.798 367.234 398.937C378.704 404.077 381.733 403.319 383.086 402.183C384.438 401.047 387.847 392.878 387.684 391.85C387.522 390.822 381.03 385.845 374.322 387.089Z" fill="#DE1250"/>
<path d="M375.782 383.14C375.782 383.14 373.726 388.766 373.672 389.469C373.618 390.173 375.403 393.202 380.759 393.743C383.086 393.96 384.871 393.311 385.791 392.229C386.71 391.147 387.955 387.684 388.874 384.817C390.606 378.974 375.782 383.14 375.782 383.14Z" fill="#F5F5F5"/>
<g opacity="0.3">
<path opacity="0.3" d="M375.782 383.14C375.782 383.14 375.349 384.33 374.917 385.683C376.323 387.738 380.056 392.12 386.278 391.363C387.306 389.253 388.171 387.035 388.82 384.763C390.606 378.974 375.782 383.14 375.782 383.14Z" fill="black"/>
</g>
<path d="M409.811 205.42H406.836C406.078 205.42 405.429 204.825 405.429 204.013V201.795C405.429 201.038 406.024 200.388 406.836 200.388H409.865C410.623 200.388 411.272 200.983 411.272 201.795V204.013C411.218 204.825 410.569 205.42 409.811 205.42ZM406.836 200.713C406.187 200.713 405.7 201.2 405.7 201.849V204.067C405.7 204.716 406.187 205.203 406.836 205.203H409.865C410.515 205.203 411.002 204.716 411.002 204.067V201.849C411.002 201.2 410.515 200.713 409.865 200.713H406.836Z" fill="#1E1E1E"/>
<path d="M409.811 205.582H406.836C405.97 205.582 405.321 204.879 405.321 204.067V201.849C405.321 200.983 406.024 200.334 406.836 200.334H409.865C410.731 200.334 411.38 201.038 411.38 201.849V204.067C411.326 204.879 410.677 205.582 409.811 205.582ZM406.836 200.821C406.295 200.821 405.862 201.254 405.862 201.795V204.013C405.862 204.554 406.295 204.987 406.836 204.987H409.865C410.406 204.987 410.839 204.554 410.839 204.013V201.795C410.839 201.254 410.406 200.821 409.865 200.821H406.836Z" fill="#1E1E1E"/>
<path d="M363.664 261.035C363.664 261.035 361.608 260.386 361.5 259.899C361.392 259.412 360.526 253.677 360.093 253.19C359.66 252.703 358.957 253.299 358.849 254.435C358.741 255.571 358.578 257.735 358.362 257.897C358.145 258.059 356.198 257.356 356.198 257.356L353.926 253.623C353.926 253.623 352.627 255.084 353.655 256.328C352.952 257.086 352.681 258.168 352.952 259.196C352.952 259.196 352.357 260.873 354.304 262.983C356.252 265.092 357.983 267.094 363.61 267.635C369.236 268.176 363.664 261.035 363.664 261.035Z" fill="#FF8538"/>
<path d="M364.908 260.386C363.826 260.007 362.636 260.061 361.608 260.548C360.093 261.414 358.957 263.523 359.823 266.066C360.688 268.609 364.042 267.96 364.042 267.96L364.908 260.386Z" fill="#FF2B50"/>
<path d="M393.743 248.538C392.391 247.834 390.93 247.456 389.415 247.402L391.147 250.215L389.307 249.62C388.874 249.512 388.442 249.728 388.279 250.107C388.279 250.161 388.279 250.215 388.225 250.269C388.171 250.539 388.333 250.864 388.55 251.026L392.229 253.461L393.743 248.538Z" fill="#FF8538"/>
<path d="M405.483 280.078C405.483 280.078 374.646 381.841 374.376 382.761C374.105 383.681 376.107 388.496 380.759 389.524C385.412 390.552 388.983 388.712 389.956 387.792C390.93 386.873 407.918 343.484 413.652 330.338C419.387 317.191 422.579 312.106 422.579 312.106C422.579 312.106 432.317 345.107 434.806 349.219C437.294 353.33 462.072 384.222 463.533 384.763C464.994 385.304 469.051 384.06 471.973 381.625C474.894 379.191 477.653 375.403 477.383 374.213C477.112 373.023 452.821 341.428 452.821 341.428L443.354 304.965C443.354 304.965 441.298 286.192 436.808 282.459C432.317 278.726 405.483 280.078 405.483 280.078Z" fill="#1E1E1E"/>
<path opacity="0.3" d="M471.457 380.807C474.907 378.089 476.955 374.935 476.031 373.761C475.107 372.588 471.56 373.839 468.11 376.557C464.659 379.274 462.611 382.429 463.536 383.602C464.46 384.776 468.006 383.524 471.457 380.807Z" fill="#3D67FE"/>
<path d="M476.95 377.892L475.652 376.269L473.488 373.564C471.54 374.213 469.701 375.241 468.078 376.539C466.509 377.73 465.102 379.19 464.02 380.868C464.777 381.787 465.589 382.815 466.346 383.735C467.753 385.466 468.943 386.873 468.943 386.873L477.329 379.407L476.95 377.892Z" fill="#F5F5F5"/>
<g opacity="0.3">
<path opacity="0.3" d="M475.652 376.269L473.542 373.618C471.594 374.267 469.755 375.295 468.132 376.594C466.563 377.784 465.156 379.245 464.074 380.922L464.778 381.787C467.212 378.704 470.945 375.458 475.652 376.269Z" fill="#1E1E1E"/>
</g>
<path d="M478.844 379.299C476.409 375.728 475.165 374.7 470.404 377.838C465.643 380.976 466.617 383.356 466.725 386.007C466.779 388.009 466.617 390.011 466.238 391.958C466.238 391.958 465.697 392.283 461.802 393.96C457.907 395.637 457.095 397.476 457.744 399.37C458.394 401.263 465.805 401.047 468.673 400.831C469.268 400.777 469.809 400.668 470.35 400.506C473.488 399.694 477.978 397.693 478.735 397.368C479.655 396.989 479.818 395.691 480.9 393.635C481.765 391.634 482.468 389.47 482.901 387.305C483.064 386.764 483.118 386.169 483.172 385.574C483.009 384.546 481.278 382.869 478.844 379.299Z" fill="#DE1250"/>
<path opacity="0.3" d="M480.629 384.709C478.681 384.871 476.626 386.494 475.489 391.309C474.353 396.124 473.217 399.64 470.242 400.614C473.38 399.803 477.87 397.801 478.627 397.476C479.547 397.098 479.709 395.799 480.791 393.743C481.657 391.742 482.36 389.578 482.793 387.414C483.118 385.899 482.631 384.492 480.629 384.709Z" fill="#1E1E1E"/>
<path d="M404.185 278.455C404.185 278.455 403.806 285.001 404.618 285.867C405.429 286.733 408.892 291.439 421.984 291.439C435.076 291.439 439.837 285.921 439.621 282.946C439.404 279.97 439.188 276.291 439.188 276.291L404.185 278.455Z" fill="#DE1250"/>
<path d="M422.471 312.43C422.417 312.43 422.417 312.43 422.363 312.376C422.255 312.322 422.146 312.16 422.255 311.998L424.04 308.319L434.589 303.504C434.698 303.45 434.86 303.504 434.968 303.612C435.022 303.774 434.968 303.882 434.86 303.991L424.473 308.752L422.741 312.268C422.687 312.376 422.579 312.43 422.471 312.43Z" fill="#3659D7"/>
<path d="M414.302 219.919C414.302 219.919 410.515 222.461 404.78 225.761C399.045 229.062 397.098 235.986 395.853 240.801C394.609 245.616 390.227 260.332 390.227 260.332C390.227 260.332 369.074 259.845 365.287 259.845C361.5 259.845 358.254 266.715 364.042 269.475C367.829 271.26 382.112 274.235 391.525 276.021C396.449 276.995 401.372 274.181 403.103 269.475L403.373 268.717C403.373 268.717 403.157 278.347 403.698 280.89C404.239 283.433 410.244 288.572 423.661 287.923C437.078 287.274 439.999 281.269 439.945 278.834C439.891 276.399 439.513 271.044 439.513 271.044C439.513 271.044 448.493 271.855 448.223 262.063C447.952 252.271 444.977 232.308 440.649 228.088C436.321 223.868 429.72 220.622 427.448 219.919C425.176 219.215 414.302 219.919 414.302 219.919Z" fill="url(#paint41_linear_15_364)"/>
<path d="M403.482 268.988C403.428 268.988 403.428 268.988 403.374 268.988C403.211 268.934 403.157 268.771 403.211 268.663L410.461 246.644C410.515 246.482 410.677 246.428 410.785 246.482C410.948 246.536 411.002 246.698 410.948 246.807L403.698 268.825C403.698 268.934 403.59 268.988 403.482 268.988Z" fill="#1E1E1E"/>
<path d="M439.567 271.368C439.404 271.368 439.296 271.26 439.296 271.098L436.537 237.447C436.537 237.285 436.645 237.177 436.807 237.177C436.97 237.177 437.078 237.285 437.078 237.447L439.837 271.044C439.891 271.206 439.729 271.368 439.567 271.368C439.621 271.368 439.567 271.368 439.567 271.368Z" fill="#1E1E1E"/>
<path d="M415.438 219.54V216.186C415.438 216.186 408.188 218.241 407.972 210.992C407.756 203.742 407.701 194.816 407.701 194.816H425.23L425.771 217.376V221.109L416.249 222.569L415.438 219.54Z" fill="#FF8538"/>
<g opacity="0.3">
<path opacity="0.3" d="M415.438 211.749C415.438 211.749 412.029 217.376 409.487 215.158C411.651 217.268 415.438 216.186 415.438 216.186V211.749Z" fill="black"/>
</g>
<path d="M410.569 197.467C409.216 197.413 407.864 197.034 406.674 196.385C405.105 195.411 405.754 193.031 406.674 192.057C406.674 192.057 402.508 191.353 404.293 188.053C406.078 184.753 421.389 182.589 427.015 187.621C432.642 192.652 430.207 199.901 429.125 203.039C428.043 206.177 426.42 207.313 425.987 209.261C425.555 211.208 426.42 213.643 423.174 213.751C419.928 213.859 417.169 214.022 416.79 210.83C416.412 207.746 415.005 206.502 415.005 206.502C415.005 206.502 417.926 202.985 416.087 201.254C414.248 199.523 412.246 203.093 412.138 206.88C412.138 206.88 410.731 207.205 410.731 206.772C410.731 206.339 410.569 197.467 410.569 197.467Z" fill="#1E1E1E"/>
<path d="M421.064 223.706C415.275 223.706 413.057 222.353 413.057 220.351C413.057 218.35 415.438 217.592 415.438 217.592V218.782C415.438 218.782 417.277 220.135 420.523 219.919C422.471 219.81 424.31 219.107 425.771 217.863V216.673C425.771 216.673 428.097 217.159 428.043 219.54C427.989 221.92 424.959 223.706 421.064 223.706Z" fill="#DE1250"/>
<path d="M408.243 209.856C408.08 209.856 407.972 209.748 407.972 209.585C407.972 209.423 408.08 209.315 408.243 209.315C408.675 209.315 409.054 209.098 409.325 208.774C409.433 208.666 409.595 208.611 409.703 208.72C409.811 208.828 409.866 208.99 409.757 209.098C409.379 209.585 408.838 209.856 408.243 209.856Z" fill="#1E1E1E"/>
<path d="M320.654 239.99L322.223 239.773C322.601 239.719 322.98 239.99 323.034 240.369C323.088 240.747 322.818 241.126 322.439 241.18L320.87 241.396C320.491 241.451 320.113 241.18 320.059 240.801C320.059 240.423 320.275 240.044 320.654 239.99Z" fill="#FF8538"/>
<path d="M389.578 263.307H389.524C389.361 263.253 389.307 263.145 389.307 262.983L390.011 260.332C390.065 260.169 390.173 260.115 390.335 260.115C390.498 260.169 390.552 260.278 390.552 260.44L389.848 263.091C389.794 263.199 389.686 263.307 389.578 263.307Z" fill="#1E1E1E"/>
</g>
<defs>
<linearGradient id="paint0_linear_15_364" x1="220.641" y1="171.953" x2="220.641" y2="213.421" gradientUnits="userSpaceOnUse">
<stop stop-color="#F5F5F5"/>
<stop offset="1" stop-color="#D1D1D1"/>
</linearGradient>
<linearGradient id="paint1_linear_15_364" x1="216.708" y1="204.532" x2="216.708" y2="227.649" gradientUnits="userSpaceOnUse">
<stop stop-color="#F5F5F5"/>
<stop offset="1" stop-color="#D1D1D1"/>
</linearGradient>
<linearGradient id="paint2_linear_15_364" x1="147.759" y1="185.646" x2="147.759" y2="214.941" gradientUnits="userSpaceOnUse">
<stop stop-color="#F5F5F5"/>
<stop offset="1" stop-color="#D1D1D1"/>
</linearGradient>
<linearGradient id="paint3_linear_15_364" x1="131.827" y1="240.385" x2="131.827" y2="287.744" gradientUnits="userSpaceOnUse">
<stop stop-color="#F5F5F5"/>
<stop offset="1" stop-color="#D1D1D1"/>
</linearGradient>
<linearGradient id="paint4_linear_15_364" x1="130.445" y1="173.966" x2="130.445" y2="206.761" gradientUnits="userSpaceOnUse">
<stop stop-color="#F5F5F5"/>
<stop offset="1" stop-color="#D1D1D1"/>
</linearGradient>
<linearGradient id="paint5_linear_15_364" x1="131.059" y1="196.006" x2="152.255" y2="196.006" gradientUnits="userSpaceOnUse">
<stop stop-color="#1DBBFF"/>
<stop offset="1" stop-color="#3D96FE"/>
</linearGradient>
<linearGradient id="paint6_linear_15_364" x1="121.061" y1="228.642" x2="142.593" y2="228.642" gradientUnits="userSpaceOnUse">
<stop stop-color="#F5F5F5"/>
<stop offset="1" stop-color="#D1D1D1"/>
</linearGradient>
<linearGradient id="paint7_linear_15_364" x1="152.255" y1="244.967" x2="183.769" y2="244.967" gradientUnits="userSpaceOnUse">
<stop stop-color="#1DBBFF"/>
<stop offset="1" stop-color="#3D96FE"/>
</linearGradient>
<linearGradient id="paint8_linear_15_364" x1="154.108" y1="247.331" x2="154.108" y2="264.065" gradientUnits="userSpaceOnUse">
<stop stop-color="#F5F5F5"/>
<stop offset="1" stop-color="#D1D1D1"/>
</linearGradient>
<linearGradient id="paint9_linear_15_364" x1="148.847" y1="273.887" x2="159.369" y2="273.887" gradientUnits="userSpaceOnUse">
<stop stop-color="#F5F5F5"/>
<stop offset="1" stop-color="#D1D1D1"/>
</linearGradient>
<linearGradient id="paint10_linear_15_364" x1="175.107" y1="266.862" x2="175.107" y2="237.242" gradientUnits="userSpaceOnUse">
<stop stop-color="#1D5CFF"/>
<stop offset="1" stop-color="#B93DFE"/>
</linearGradient>
<linearGradient id="paint11_linear_15_364" x1="224.136" y1="132.752" x2="224.136" y2="103.283" gradientUnits="userSpaceOnUse">
<stop stop-color="#1DBBFF"/>
<stop offset="1" stop-color="#3D96FE"/>
</linearGradient>
<linearGradient id="paint12_linear_15_364" x1="199.885" y1="29.4522" x2="222.066" y2="29.4522" gradientUnits="userSpaceOnUse">
<stop stop-color="#F5F5F5"/>
<stop offset="1" stop-color="#D1D1D1"/>
</linearGradient>
<linearGradient id="paint13_linear_15_364" x1="189.747" y1="92.2928" x2="212.512" y2="92.2928" gradientUnits="userSpaceOnUse">
<stop stop-color="#F5F5F5"/>
<stop offset="1" stop-color="#D1D1D1"/>
</linearGradient>
<linearGradient id="paint14_linear_15_364" x1="203.277" y1="137.794" x2="213.529" y2="137.794" gradientUnits="userSpaceOnUse">
<stop stop-color="#F5F5F5"/>
<stop offset="1" stop-color="#D1D1D1"/>
</linearGradient>
<linearGradient id="paint15_linear_15_364" x1="193.201" y1="134.272" x2="193.201" y2="175.821" gradientUnits="userSpaceOnUse">
<stop stop-color="#F5F5F5"/>
<stop offset="1" stop-color="#D1D1D1"/>
</linearGradient>
<linearGradient id="paint16_linear_15_364" x1="175.113" y1="168.999" x2="226.908" y2="168.999" gradientUnits="userSpaceOnUse">
<stop stop-color="#1DBBFF"/>
<stop offset="1" stop-color="#3D8AFE"/>
</linearGradient>
<linearGradient id="paint17_linear_15_364" x1="243.279" y1="187.905" x2="266.786" y2="187.905" gradientUnits="userSpaceOnUse">
<stop stop-color="#F5F5F5"/>
<stop offset="1" stop-color="#D1D1D1"/>
</linearGradient>
<linearGradient id="paint18_linear_15_364" x1="276.418" y1="185.262" x2="276.418" y2="143.058" gradientUnits="userSpaceOnUse">
<stop stop-color="#1DBBFF"/>
<stop offset="1" stop-color="#3D96FE"/>
</linearGradient>
<linearGradient id="paint19_linear_15_364" x1="269.956" y1="302.725" x2="269.956" y2="264.979" gradientUnits="userSpaceOnUse">
<stop stop-color="#F5F5F5"/>
<stop offset="1" stop-color="#D1D1D1"/>
</linearGradient>
<linearGradient id="paint20_linear_15_364" x1="246.85" y1="223.332" x2="246.85" y2="187.772" gradientUnits="userSpaceOnUse">
<stop stop-color="#F5F5F5"/>
<stop offset="1" stop-color="#D1D1D1"/>
</linearGradient>
<linearGradient id="paint21_linear_15_364" x1="269.967" y1="192.671" x2="290.038" y2="192.671" gradientUnits="userSpaceOnUse">
<stop stop-color="#F5F5F5"/>
<stop offset="1" stop-color="#D1D1D1"/>
</linearGradient>
<linearGradient id="paint22_linear_15_364" x1="246.125" y1="190.163" x2="246.125" y2="179.808" gradientUnits="userSpaceOnUse">
<stop stop-color="#F5F5F5"/>
<stop offset="1" stop-color="#D1D1D1"/>
</linearGradient>
<linearGradient id="paint23_linear_15_364" x1="246.571" y1="78.5809" x2="246.571" y2="51.6767" gradientUnits="userSpaceOnUse">
<stop stop-color="#F5F5F5"/>
<stop offset="1" stop-color="#D1D1D1"/>
</linearGradient>
<linearGradient id="paint24_linear_15_364" x1="245" y1="92.9501" x2="245" y2="124.94" gradientUnits="userSpaceOnUse">
<stop stop-color="#F5F5F5"/>
<stop offset="1" stop-color="#D1D1D1"/>
</linearGradient>
<linearGradient id="paint25_linear_15_364" x1="155.891" y1="113.844" x2="155.891" y2="145.833" gradientUnits="userSpaceOnUse">
<stop stop-color="#F5F5F5"/>
<stop offset="1" stop-color="#D1D1D1"/>
</linearGradient>
<linearGradient id="paint26_linear_15_364" x1="259.834" y1="108.685" x2="303.91" y2="108.685" gradientUnits="userSpaceOnUse">
<stop stop-color="#F5F5F5"/>
<stop offset="1" stop-color="#D1D1D1"/>
</linearGradient>
<linearGradient id="paint27_linear_15_364" x1="153.391" y1="91.5489" x2="153.391" y2="127.228" gradientUnits="userSpaceOnUse">
<stop stop-color="#F5F5F5"/>
<stop offset="1" stop-color="#D1D1D1"/>
</linearGradient>
<linearGradient id="paint28_linear_15_364" x1="158.552" y1="188.145" x2="158.552" y2="160.505" gradientUnits="userSpaceOnUse">
<stop stop-color="#F5F5F5"/>
<stop offset="1" stop-color="#D1D1D1"/>
</linearGradient>
<linearGradient id="paint29_linear_15_364" x1="56.7622" y1="266.826" x2="78.7648" y2="266.826" gradientUnits="userSpaceOnUse">
<stop stop-color="#F5F5F5"/>
<stop offset="1" stop-color="#E4E4E4"/>
</linearGradient>
<linearGradient id="paint30_linear_15_364" x1="108.883" y1="219.621" x2="131.876" y2="358.556" gradientUnits="userSpaceOnUse">
<stop stop-color="#F5F5F5"/>
<stop offset="1" stop-color="#E4E4E4"/>
</linearGradient>
<linearGradient id="paint31_linear_15_364" x1="56.5848" y1="166.386" x2="9.82568" y2="339.146" gradientUnits="userSpaceOnUse">
<stop stop-color="#F5F5F5"/>
<stop offset="1" stop-color="#E4E4E4"/>
</linearGradient>
<linearGradient id="paint32_linear_15_364" x1="41.0839" y1="241.613" x2="112.762" y2="241.613" gradientUnits="userSpaceOnUse">
<stop stop-color="#F5F5F5"/>
<stop offset="1" stop-color="#E4E4E4"/>
</linearGradient>
<linearGradient id="paint33_linear_15_364" x1="28.3703" y1="275.885" x2="76.3033" y2="275.885" gradientUnits="userSpaceOnUse">
<stop stop-color="#F5F5F5"/>
<stop offset="1" stop-color="#E4E4E4"/>
</linearGradient>
<linearGradient id="paint34_linear_15_364" x1="103.283" y1="102.472" x2="45.0334" y2="322.737" gradientUnits="userSpaceOnUse">
<stop stop-color="#F5F5F5"/>
<stop offset="1" stop-color="#E4E4E4"/>
</linearGradient>
<linearGradient id="paint35_linear_15_364" x1="103.284" y1="53.747" x2="66.7823" y2="144.252" gradientUnits="userSpaceOnUse">
<stop stop-color="#1C48C0"/>
<stop offset="1" stop-color="#3DE7FE"/>
</linearGradient>
<linearGradient id="paint36_linear_15_364" x1="121.862" y1="61.2365" x2="85.3603" y2="151.747" gradientUnits="userSpaceOnUse">
<stop stop-color="#1C48C0"/>
<stop offset="1" stop-color="#3DE7FE"/>
</linearGradient>
<linearGradient id="paint37_linear_15_364" x1="325.06" y1="289.281" x2="325.06" y2="242.814" gradientUnits="userSpaceOnUse">
<stop stop-color="#1C48C0"/>
<stop offset="1" stop-color="#3DE7FE"/>
</linearGradient>
<linearGradient id="paint38_linear_15_364" x1="320.79" y1="289.281" x2="320.79" y2="242.814" gradientUnits="userSpaceOnUse">
<stop stop-color="#3DE7FE"/>
<stop offset="1" stop-color="#3D8AFE"/>
</linearGradient>
<linearGradient id="paint39_linear_15_364" x1="318.217" y1="237.42" x2="317.83" y2="234.781" gradientUnits="userSpaceOnUse">
<stop stop-color="#FF8538"/>
<stop offset="1" stop-color="#F5F5F5"/>
</linearGradient>
<linearGradient id="paint40_linear_15_364" x1="323.077" y1="236.706" x2="322.69" y2="234.067" gradientUnits="userSpaceOnUse">
<stop stop-color="#FF8538"/>
<stop offset="1" stop-color="#F5F5F5"/>
</linearGradient>
<linearGradient id="paint41_linear_15_364" x1="404.605" y1="215.893" x2="404.605" y2="286.202" gradientUnits="userSpaceOnUse">
<stop stop-color="#A4F3F8"/>
<stop offset="1" stop-color="#3D96FE"/>
</linearGradient>
<clipPath id="clip0_15_364">
<rect width="535" height="417.277" fill="white"/>
</clipPath>
</defs>
</svg>
