<svg width="143" height="32" viewBox="0 0 143 32" fill="none" xmlns="http://www.w3.org/2000/svg">
<path d="M0 19.1063C9.20712 14.8718 18.9491 8.50152 24.4568 0.0226462L24.4715 0L24.516 0.0226462L31.892 3.77493V16.9667C35.9772 12.7966 42.4381 9.42942 48.5459 6.28137L56.4706 11.0386C47.2955 15.2905 37.6113 21.6547 31.9455 30.1176L24.5251 26.2746V13.2054C20.4398 17.3619 14.1176 20.9461 8.00982 24.1077L0 19.1063Z" fill="#0C1621"/>
<path d="M79.0543 23.133H74.6973V15.288C74.6973 12.9836 73.6756 11.8314 71.6323 11.8314C70.6507 11.8114 69.8394 12.162 69.1984 12.8834C68.5774 13.6048 68.2669 14.4664 68.2669 15.4684V23.133H64V8.28461H67.9063L68.0566 10.1782C69.2385 8.63528 70.841 7.88384 72.8643 7.92392C76.991 7.92392 79.0543 10.3686 79.0543 15.258V23.133Z" fill="#0C1621"/>
<path d="M86.8432 8.25455H82.5162V23.133H86.8432V8.25455ZM82.967 6.15052C82.4662 5.70968 82.2158 5.10853 82.2158 4.34707C82.2158 3.58561 82.4662 2.98446 82.967 2.54362C83.4878 2.10277 84.0587 1.88235 84.6797 1.88235C85.3007 1.88235 85.8616 2.10277 86.3624 2.54362C86.8833 2.98446 87.1437 3.58561 87.1437 4.34707C87.1437 5.10853 86.8833 5.70968 86.3624 6.15052C85.8616 6.59137 85.3007 6.81179 84.6797 6.81179C84.0587 6.81179 83.4878 6.59137 82.967 6.15052Z" fill="#0C1621"/>
<path d="M97.6494 11.8915C96.5476 11.8915 95.6662 12.2522 95.0051 12.9736C94.3441 13.6749 94.0135 14.5867 94.0135 15.7088C94.0135 16.8109 94.3341 17.7227 94.9751 18.4441C95.6362 19.1654 96.5276 19.5261 97.6494 19.5261C98.7512 19.5261 99.6927 19.2155 100.474 18.5943C101.255 17.9732 101.646 17.0113 101.646 15.7088C101.646 14.5266 101.245 13.5948 100.444 12.9135C99.6426 12.2322 98.7111 11.8915 97.6494 11.8915ZM101.706 2.12281H106.063V23.133H102.187L101.916 21.2394C100.795 22.6822 99.1518 23.4035 96.9883 23.4035C94.8048 23.4035 93.032 22.7022 91.6698 21.2995C90.3276 19.8768 89.6565 18.0132 89.6565 15.7088C89.6565 13.3443 90.3376 11.4707 91.6998 10.0881C93.062 8.68537 94.8449 7.98403 97.0484 7.98403C99.0116 7.98403 100.564 8.68537 101.706 10.0881V2.12281Z" fill="#0C1621"/>
<path d="M109.087 25.1769H113.114C113.254 27.1808 114.496 28.1827 116.84 28.1827C117.862 28.1827 118.723 27.9422 119.424 27.4613C120.145 27.0004 120.506 26.3292 120.506 25.4475C120.506 23.7442 119.304 22.8926 116.9 22.8926C114.456 22.8926 112.503 22.2213 111.04 20.8787C109.598 19.5161 108.877 17.6926 108.877 15.4082C108.877 13.0036 109.658 11.1401 111.221 9.81754C112.783 8.49501 114.676 7.83374 116.9 7.83374C118.442 7.83374 119.604 8.10426 120.386 8.6453L122.008 6.54127L125.133 8.94587L123.24 11.2002C124.322 12.5027 124.833 13.9254 124.773 15.4684C124.713 17.873 123.651 19.6063 121.588 20.6683C123.791 21.6502 124.893 23.2432 124.893 25.4475C124.893 27.5315 124.102 29.1445 122.519 30.2867C120.936 31.4289 119.043 32 116.84 32C114.296 32 112.353 31.3989 111.01 30.1966C109.688 29.0143 109.047 27.3411 109.087 25.1769ZM116.9 11.6811C115.758 11.6811 114.827 12.0117 114.105 12.673C113.404 13.3343 113.054 14.246 113.054 15.4082C113.054 16.4703 113.414 17.3319 114.135 17.9932C114.877 18.6344 115.798 18.955 116.9 18.955C117.942 18.955 118.823 18.6444 119.544 18.0232C120.265 17.4021 120.626 16.5304 120.626 15.4082C120.626 14.3663 120.265 13.4846 119.544 12.7632C118.843 12.0418 117.962 11.6811 116.9 11.6811Z" fill="#0C1621"/>
<path d="M142.394 17.1215H131.487C131.607 17.883 132.018 18.5142 132.719 19.0152C133.42 19.4961 134.352 19.7365 135.513 19.7365C137.176 19.7365 138.458 19.3458 139.36 18.5643L141.794 21.2695C140.311 22.7323 138.188 23.4637 135.423 23.4637C132.779 23.4637 130.726 22.7523 129.263 21.3296C127.821 19.9069 127.1 17.9832 127.1 15.5585C127.1 13.2742 127.811 11.4306 129.233 10.0279C130.656 8.60522 132.569 7.89386 134.973 7.89386C137.597 7.89386 139.6 8.69539 140.982 10.2985C142.384 11.9015 142.855 14.1759 142.394 17.1215ZM131.487 13.9655H138.518C138.478 13.204 138.118 12.6229 137.436 12.2221C136.755 11.8013 135.934 11.5909 134.973 11.5909C134.111 11.5909 133.37 11.8013 132.749 12.2221C132.128 12.643 131.707 13.2241 131.487 13.9655Z" fill="#0C1621"/>
</svg>
